G75*
G70*
%OFA0B0*%
%FSLAX24Y24*%
%IPPOS*%
%LPD*%
%AMOC8*
5,1,8,0,0,1.08239X$1,22.5*
%
%ADD10C,0.0592*%
%ADD11C,0.0848*%
%ADD12R,0.0848X0.0848*%
%ADD13C,0.1380*%
%ADD14R,0.0789X0.0789*%
%ADD15C,0.0789*%
%ADD16C,0.0730*%
%ADD17R,0.0880X0.0880*%
%ADD18C,0.0880*%
%ADD19C,0.0600*%
%ADD20C,0.0740*%
%ADD21C,0.1970*%
%ADD22OC8,0.0780*%
%ADD23C,0.0780*%
%ADD24OC8,0.0740*%
%ADD25OC8,0.0680*%
%ADD26C,0.0680*%
%ADD27OC8,0.0710*%
%ADD28C,0.0595*%
%ADD29OC8,0.0600*%
%ADD30R,0.1346X0.1346*%
%ADD31C,0.0480*%
%ADD32C,0.0440*%
D10*
X002128Y017511D03*
X003112Y017511D03*
X005081Y019480D03*
X003112Y021448D03*
X002128Y021448D03*
X002128Y023023D03*
X003112Y023023D03*
X005081Y024991D03*
X003112Y026960D03*
X002128Y026960D03*
X029096Y024991D03*
X031065Y023023D03*
X032049Y023023D03*
X032049Y021448D03*
X031065Y021448D03*
X029096Y019480D03*
X031065Y017511D03*
X032049Y017511D03*
X032049Y026960D03*
X031065Y026960D03*
D11*
X029096Y026960D03*
X029096Y023023D03*
X029096Y021448D03*
X029096Y017511D03*
X005081Y017511D03*
X005081Y021448D03*
X005081Y023023D03*
X005081Y026960D03*
D12*
X003112Y024991D03*
X003112Y019480D03*
X031065Y019480D03*
X031065Y024991D03*
D13*
X028900Y015936D03*
X005277Y015936D03*
D14*
X020253Y025869D03*
D15*
X018805Y025869D03*
X017357Y025869D03*
D16*
X014636Y025119D02*
X014636Y024470D01*
X013636Y024470D02*
X013636Y025119D01*
X011683Y022167D02*
X011683Y021517D01*
X010683Y021517D02*
X010683Y022167D01*
X013636Y019214D02*
X013636Y018564D01*
X014636Y018564D02*
X014636Y019214D01*
X016589Y021517D02*
X016589Y022167D01*
X017589Y022167D02*
X017589Y021517D01*
X022494Y020198D02*
X022494Y019549D01*
X023494Y019549D02*
X023494Y020198D01*
X023494Y023486D02*
X023494Y024135D01*
X022494Y024135D02*
X022494Y023486D01*
D17*
X029696Y003551D03*
D18*
X031214Y003551D03*
D19*
X024022Y012936D02*
X024022Y013456D01*
X023022Y013456D02*
X023022Y012936D01*
X022022Y012936D02*
X022022Y013456D01*
X021022Y013456D02*
X021022Y012936D01*
X020022Y012936D02*
X020022Y013456D01*
X019022Y013456D02*
X019022Y012936D01*
X018022Y012936D02*
X018022Y013456D01*
X017022Y013456D02*
X017022Y012936D01*
X017022Y015936D02*
X017022Y016456D01*
X018022Y016456D02*
X018022Y015936D01*
X019022Y015936D02*
X019022Y016456D01*
X020022Y016456D02*
X020022Y015936D01*
X021022Y015936D02*
X021022Y016456D01*
X022022Y016456D02*
X022022Y015936D01*
X023022Y015936D02*
X023022Y016456D01*
X024022Y016456D02*
X024022Y015936D01*
X025840Y021590D02*
X026360Y021590D01*
X026360Y022590D02*
X025840Y022590D01*
X025840Y023590D02*
X026360Y023590D01*
X026360Y024606D02*
X025840Y024606D01*
X025840Y025606D02*
X026360Y025606D01*
X026360Y026606D02*
X025840Y026606D01*
X008234Y013901D02*
X007714Y013901D01*
X007714Y012901D02*
X008234Y012901D01*
X008234Y011901D02*
X007714Y011901D01*
X007714Y010901D02*
X008234Y010901D01*
X008234Y009901D02*
X007714Y009901D01*
X007714Y008901D02*
X008234Y008901D01*
X008234Y007901D02*
X007714Y007901D01*
X007714Y006901D02*
X008234Y006901D01*
X004714Y006901D02*
X004194Y006901D01*
X002880Y007173D02*
X002360Y007173D01*
X002360Y008173D02*
X002880Y008173D01*
X002880Y009173D02*
X002360Y009173D01*
X002360Y010173D02*
X002880Y010173D01*
X002880Y011173D02*
X002360Y011173D01*
X002360Y012173D02*
X002880Y012173D01*
X002880Y013173D02*
X002360Y013173D01*
X002360Y014173D02*
X002880Y014173D01*
X004194Y013901D02*
X004714Y013901D01*
X004714Y012901D02*
X004194Y012901D01*
X004194Y011901D02*
X004714Y011901D01*
X004714Y010901D02*
X004194Y010901D01*
X004194Y009901D02*
X004714Y009901D01*
X004714Y008901D02*
X004194Y008901D01*
X004194Y007901D02*
X004714Y007901D01*
D20*
X013447Y013342D03*
X014447Y013342D03*
X015447Y013342D03*
D21*
X027998Y007432D03*
X030321Y007432D03*
X029179Y009283D03*
D22*
X026644Y011381D03*
X025411Y006208D03*
D23*
X024411Y006208D03*
X026644Y012381D03*
D24*
X002691Y003318D03*
X003691Y003318D03*
X004691Y003318D03*
X005691Y003318D03*
X017297Y007275D03*
X018297Y007275D03*
X022699Y007204D03*
X022699Y006204D03*
X021372Y003834D03*
X020372Y003834D03*
X028829Y011413D03*
X028829Y012413D03*
X012057Y025098D03*
X011057Y025098D03*
X010337Y018117D03*
X009337Y018117D03*
X009337Y017117D03*
X010337Y017117D03*
X008337Y017117D03*
X008337Y018117D03*
X011309Y014381D03*
X011309Y013381D03*
D25*
X011289Y003299D03*
X012289Y003299D03*
X013289Y003299D03*
X010289Y003299D03*
X009289Y003299D03*
X008289Y003299D03*
D26*
X023474Y003536D02*
X023474Y002936D01*
X024474Y002936D02*
X024474Y003536D01*
X025474Y003536D02*
X025474Y002936D01*
X026474Y002936D02*
X026474Y003536D01*
X009392Y023545D02*
X009392Y024145D01*
X007612Y024145D02*
X007612Y023545D01*
X007612Y026105D02*
X007612Y026705D01*
X009392Y026705D02*
X009392Y026105D01*
D27*
X011301Y011574D03*
X012301Y011574D03*
X013301Y011574D03*
X014301Y011574D03*
X015301Y011574D03*
X016301Y011574D03*
X017301Y011574D03*
X018301Y011574D03*
X019301Y011574D03*
X020301Y011574D03*
X021301Y011574D03*
X022301Y011574D03*
X023301Y011574D03*
X024301Y011574D03*
X024301Y008574D03*
X023301Y008574D03*
X022301Y008574D03*
X021301Y008574D03*
X020301Y008574D03*
X019301Y008574D03*
X018301Y008574D03*
X017301Y008574D03*
X016301Y008574D03*
X015301Y008574D03*
X014301Y008574D03*
X013301Y008574D03*
X012301Y008574D03*
X011301Y008574D03*
D28*
X026632Y013901D03*
X028632Y013901D03*
X031122Y013436D03*
X031122Y012255D03*
X031122Y014617D03*
D29*
X019848Y005692D03*
X015848Y005692D03*
X015722Y007098D03*
X011722Y007098D03*
X010840Y026850D03*
X014840Y026850D03*
D30*
X031122Y015799D03*
X031122Y011074D03*
D31*
X028340Y010657D03*
X025340Y011157D03*
X024840Y010157D03*
X019801Y009657D03*
X018840Y010157D03*
X021415Y014157D03*
X024340Y014157D03*
X018340Y018157D03*
X015368Y020775D03*
X011340Y017657D03*
X012852Y016184D03*
X009840Y019657D03*
X009340Y012657D03*
X011840Y010657D03*
X004340Y005657D03*
X020840Y005157D03*
D32*
X025884Y010240D03*
X016301Y013850D03*
X012340Y014322D03*
X007325Y015306D03*
X006970Y013889D03*
X005789Y013889D03*
X006774Y010306D03*
X021183Y019795D03*
M02*
