%
M48
M72
T01C0.0200
T02C0.0240
T03C0.0315
T04C0.0320
T05C0.0354
T06C0.0400
T07C0.0433
T08C0.0472
T09C0.0512
T10C0.0866
T11C0.1181
T12C0.1300
%
T01
X6774Y10306
X6970Y13889
X5789Y13889
X7325Y15306
X12340Y14322
X16301Y13850
X21183Y19795
X25884Y10240
T02
X24840Y10157
X25340Y11157
X28340Y10657
X24340Y14157
X21415Y14157
X18340Y18157
X15368Y20775
X11340Y17657
X12852Y16184
X9840Y19657
X9340Y12657
X11840Y10657
X18840Y10157
X19801Y9657
X20840Y5157
X4340Y5657
T03
X26632Y13901
X28632Y13901
X31122Y13436
X31122Y12255
X31122Y14617
T04
X28829Y12413
X28829Y11413
X26644Y11381
X26644Y12381
X24301Y11574
X23301Y11574
X22301Y11574
X21301Y11574
X20301Y11574
X19301Y11574
X18301Y11574
X17301Y11574
X16301Y11574
X15301Y11574
X14301Y11574
X13301Y11574
X12301Y11574
X11301Y11574
X11309Y13381
X11309Y14381
X7714Y13901
X7714Y12901
X7714Y11901
X7714Y10901
X7714Y9901
X7714Y8901
X7714Y7901
X7714Y6901
X4714Y6901
X4714Y7901
X4714Y8901
X4714Y9901
X4714Y10901
X4714Y11901
X4714Y12901
X4714Y13901
X2620Y14173
X2620Y13173
X2620Y12173
X2620Y11173
X2620Y10173
X2620Y9173
X2620Y8173
X2620Y7173
X11301Y8574
X12301Y8574
X13301Y8574
X14301Y8574
X15301Y8574
X16301Y8574
X17301Y8574
X18301Y8574
X19301Y8574
X20301Y8574
X21301Y8574
X22301Y8574
X23301Y8574
X24301Y8574
X22699Y7204
X22699Y6204
X24411Y6208
X25411Y6208
X21372Y3834
X20372Y3834
X19848Y5692
X18297Y7275
X17297Y7275
X15722Y7098
X15848Y5692
X11722Y7098
X17022Y13196
X18022Y13196
X19022Y13196
X20022Y13196
X21022Y13196
X22022Y13196
X23022Y13196
X24022Y13196
X24022Y16196
X23022Y16196
X22022Y16196
X21022Y16196
X20022Y16196
X19022Y16196
X18022Y16196
X17022Y16196
X26100Y21590
X26100Y22590
X26100Y23590
X26100Y24606
X26100Y25606
X26100Y26606
X14840Y26850
X12057Y25098
X11057Y25098
X10840Y26850
T05
X13447Y13342
X14447Y13342
X15447Y13342
T06
X2691Y3318
X3691Y3318
X4691Y3318
X5691Y3318
X8289Y3299
X9289Y3299
X10289Y3299
X11289Y3299
X12289Y3299
X13289Y3299
X23474Y3236
X24474Y3236
X25474Y3236
X26474Y3236
X10337Y17117
X9337Y17117
X9337Y18117
X10337Y18117
X8337Y18117
X8337Y17117
X7612Y23845
X9392Y23845
X9392Y26405
X7612Y26405
T07
X10683Y21842
X11683Y21842
X13636Y24795
X14636Y24795
X16589Y21842
X17589Y21842
X14636Y18889
X13636Y18889
X22494Y19873
X23494Y19873
X23494Y23810
X22494Y23810
T08
X20253Y25869
X18805Y25869
X17357Y25869
X29696Y3551
X31214Y3551
T09
X31065Y17511
X32049Y17511
X31065Y19480
X29096Y19480
X29096Y21448
X29096Y23023
X31065Y23023
X32049Y23023
X32049Y21448
X31065Y21448
X31065Y24991
X29096Y24991
X29096Y26960
X31065Y26960
X32049Y26960
X29096Y17511
X5081Y17511
X3112Y17511
X2128Y17511
X3112Y19480
X5081Y19480
X5081Y21448
X5081Y23023
X3112Y23023
X2128Y23023
X2128Y21448
X3112Y21448
X3112Y24991
X5081Y24991
X5081Y26960
X3112Y26960
X2128Y26960
T10
X31122Y15799
X31122Y11074
T11
X29179Y9283
X30321Y7432
X27998Y7432
T12
X28900Y15936
X5277Y15936
M30
