G75*
G70*
%OFA0B0*%
%FSLAX24Y24*%
%IPPOS*%
%LPD*%
%AMOC8*
5,1,8,0,0,1.08239X$1,22.5*
%
%ADD10C,0.0040*%
%ADD11C,0.0080*%
%ADD12C,0.0050*%
%ADD13C,0.0130*%
%ADD14C,0.0100*%
%ADD15C,0.0030*%
%ADD16C,0.0060*%
%ADD17C,0.0010*%
%ADD18C,0.0020*%
%ADD19R,0.0340X0.0240*%
%ADD20C,0.0200*%
%ADD21R,0.4200X0.0300*%
%ADD22R,0.0750X0.0200*%
%ADD23R,0.1300X0.0200*%
D10*
X021109Y002488D02*
X021109Y002948D01*
X021339Y002948D01*
X021416Y002872D01*
X021416Y002718D01*
X021339Y002641D01*
X021109Y002641D01*
X021570Y002718D02*
X021570Y002948D01*
X021570Y002718D02*
X021646Y002641D01*
X021723Y002718D01*
X021800Y002641D01*
X021876Y002718D01*
X021876Y002948D01*
X022030Y002948D02*
X022030Y002641D01*
X022030Y002795D02*
X022183Y002948D01*
X022260Y002948D01*
X015027Y017531D02*
X015027Y017992D01*
X014720Y017992D02*
X015027Y017531D01*
X014720Y017531D02*
X014720Y017992D01*
X014566Y017992D02*
X014566Y017531D01*
X014413Y017685D01*
X014260Y017531D01*
X014260Y017992D01*
X014106Y017915D02*
X014106Y017608D01*
X014029Y017531D01*
X013876Y017531D01*
X013799Y017608D01*
X013799Y017915D01*
X013876Y017992D01*
X014029Y017992D01*
X014106Y017915D01*
X013646Y017915D02*
X013646Y017608D01*
X013569Y017531D01*
X013339Y017531D01*
X013339Y017992D01*
X013569Y017992D01*
X013646Y017915D01*
X012085Y020533D02*
X012085Y020994D01*
X012238Y020994D02*
X011931Y020994D01*
X011778Y020994D02*
X011778Y020533D01*
X011778Y020763D02*
X011471Y020763D01*
X011317Y020763D02*
X011164Y020763D01*
X011317Y020763D02*
X011317Y020610D01*
X011241Y020533D01*
X011087Y020533D01*
X011011Y020610D01*
X011011Y020917D01*
X011087Y020994D01*
X011241Y020994D01*
X011317Y020917D01*
X011471Y020994D02*
X011471Y020533D01*
X010857Y020533D02*
X010704Y020533D01*
X010780Y020533D02*
X010780Y020994D01*
X010704Y020994D02*
X010857Y020994D01*
X010550Y020917D02*
X010550Y020763D01*
X010474Y020687D01*
X010243Y020687D01*
X010397Y020687D02*
X010550Y020533D01*
X010243Y020533D02*
X010243Y020994D01*
X010474Y020994D01*
X010550Y020917D01*
X013787Y023558D02*
X013863Y023481D01*
X014017Y023481D01*
X014094Y023558D01*
X014094Y023941D01*
X014247Y023941D02*
X014477Y023941D01*
X014554Y023865D01*
X014554Y023711D01*
X014477Y023634D01*
X014247Y023634D01*
X014247Y023481D02*
X014247Y023941D01*
X013787Y023941D02*
X013787Y023558D01*
X016316Y020954D02*
X016316Y020494D01*
X016623Y020494D01*
X016777Y020494D02*
X017083Y020494D01*
X017237Y020494D02*
X017237Y020954D01*
X017544Y020954D01*
X017697Y020954D02*
X018004Y020954D01*
X017851Y020954D02*
X017851Y020494D01*
X017390Y020724D02*
X017237Y020724D01*
X017083Y020954D02*
X016777Y020954D01*
X016777Y020494D01*
X016777Y020724D02*
X016930Y020724D01*
X022286Y022516D02*
X022286Y022977D01*
X022439Y022823D01*
X022593Y022977D01*
X022593Y022516D01*
X022746Y022516D02*
X022746Y022977D01*
X023053Y022977D01*
X023206Y022977D02*
X023206Y022516D01*
X023053Y022516D02*
X022746Y022516D01*
X022746Y022747D02*
X022899Y022747D01*
X023206Y022977D02*
X023513Y022516D01*
X023513Y022977D01*
X023667Y022977D02*
X023667Y022593D01*
X023743Y022516D01*
X023897Y022516D01*
X023974Y022593D01*
X023974Y022977D01*
X027297Y023248D02*
X027374Y023171D01*
X027451Y023171D01*
X027527Y023248D01*
X027527Y023401D01*
X027604Y023478D01*
X027681Y023478D01*
X027757Y023401D01*
X027757Y023248D01*
X027681Y023171D01*
X027297Y023248D02*
X027297Y023401D01*
X027374Y023478D01*
X027297Y023631D02*
X027297Y023938D01*
X027297Y024092D02*
X027757Y024399D01*
X027297Y024399D01*
X027374Y024552D02*
X027297Y024629D01*
X027297Y024782D01*
X027374Y024859D01*
X027374Y025012D02*
X027681Y025012D01*
X027757Y025089D01*
X027757Y025243D01*
X027681Y025319D01*
X027374Y025319D01*
X027297Y025243D01*
X027297Y025089D01*
X027374Y025012D01*
X027527Y024782D02*
X027604Y024859D01*
X027681Y024859D01*
X027757Y024782D01*
X027757Y024629D01*
X027681Y024552D01*
X027527Y024629D02*
X027527Y024782D01*
X027527Y024629D02*
X027451Y024552D01*
X027374Y024552D01*
X027297Y024092D02*
X027757Y024092D01*
X027757Y023938D02*
X027757Y023631D01*
X027297Y023631D01*
X027527Y023631D02*
X027527Y023785D01*
X027604Y025473D02*
X027604Y025703D01*
X027527Y025780D01*
X027374Y025780D01*
X027297Y025703D01*
X027297Y025473D01*
X027757Y025473D01*
X027604Y025626D02*
X027757Y025780D01*
X027834Y025933D02*
X027834Y026240D01*
X027757Y026393D02*
X027757Y026700D01*
X027757Y026547D02*
X027297Y026547D01*
X027451Y026393D01*
X027451Y021425D02*
X027374Y021425D01*
X027297Y021348D01*
X027297Y021195D01*
X027374Y021118D01*
X027451Y021425D02*
X027757Y021118D01*
X027757Y021425D01*
X027834Y020964D02*
X027834Y020657D01*
X027757Y020504D02*
X027604Y020351D01*
X027604Y020427D02*
X027604Y020197D01*
X027757Y020197D02*
X027297Y020197D01*
X027297Y020427D01*
X027374Y020504D01*
X027527Y020504D01*
X027604Y020427D01*
X027681Y020044D02*
X027374Y020044D01*
X027297Y019967D01*
X027297Y019813D01*
X027374Y019737D01*
X027681Y019737D01*
X027757Y019813D01*
X027757Y019967D01*
X027681Y020044D01*
X027681Y019583D02*
X027757Y019507D01*
X027757Y019353D01*
X027681Y019276D01*
X027757Y019123D02*
X027297Y018816D01*
X027757Y018816D01*
X027757Y018663D02*
X027757Y018356D01*
X027297Y018356D01*
X027297Y018663D01*
X027527Y018509D02*
X027527Y018356D01*
X027604Y018202D02*
X027681Y018202D01*
X027757Y018126D01*
X027757Y017972D01*
X027681Y017895D01*
X027527Y017972D02*
X027527Y018126D01*
X027604Y018202D01*
X027374Y018202D02*
X027297Y018126D01*
X027297Y017972D01*
X027374Y017895D01*
X027451Y017895D01*
X027527Y017972D01*
X027757Y019123D02*
X027297Y019123D01*
X027374Y019276D02*
X027297Y019353D01*
X027297Y019507D01*
X027374Y019583D01*
X027527Y019507D02*
X027604Y019583D01*
X027681Y019583D01*
X027527Y019507D02*
X027527Y019353D01*
X027451Y019276D01*
X027374Y019276D01*
X023700Y018956D02*
X023393Y018956D01*
X023240Y018956D02*
X022933Y018956D01*
X022933Y018496D01*
X023240Y018496D01*
X023086Y018726D02*
X022933Y018726D01*
X022780Y018649D02*
X022780Y018572D01*
X022703Y018496D01*
X022549Y018496D01*
X022473Y018572D01*
X022549Y018726D02*
X022703Y018726D01*
X022780Y018649D01*
X022780Y018879D02*
X022703Y018956D01*
X022549Y018956D01*
X022473Y018879D01*
X022473Y018803D01*
X022549Y018726D01*
X023547Y018496D02*
X023547Y018956D01*
X006850Y020024D02*
X006850Y020331D01*
X006773Y020485D02*
X006466Y020792D01*
X006390Y020792D01*
X006313Y020715D01*
X006313Y020561D01*
X006390Y020485D01*
X006773Y020485D02*
X006773Y020792D01*
X006773Y019871D02*
X006313Y019871D01*
X006466Y019718D01*
X006313Y019564D01*
X006773Y019564D01*
X006773Y019411D02*
X006466Y019411D01*
X006313Y019257D01*
X006466Y019104D01*
X006773Y019104D01*
X006697Y018950D02*
X006773Y018874D01*
X006773Y018720D01*
X006697Y018643D01*
X006390Y018643D01*
X006313Y018720D01*
X006313Y018874D01*
X006390Y018950D01*
X006543Y019104D02*
X006543Y019411D01*
X006657Y023880D02*
X006350Y023880D01*
X006274Y023956D01*
X006274Y024110D01*
X006350Y024186D01*
X006427Y024340D02*
X006274Y024493D01*
X006427Y024647D01*
X006734Y024647D01*
X006734Y024800D02*
X006274Y024800D01*
X006427Y024954D01*
X006274Y025107D01*
X006734Y025107D01*
X006811Y025261D02*
X006811Y025568D01*
X006734Y025721D02*
X006734Y026028D01*
X006734Y025874D02*
X006274Y025874D01*
X006427Y025721D01*
X006504Y024647D02*
X006504Y024340D01*
X006427Y024340D02*
X006734Y024340D01*
X006657Y024186D02*
X006734Y024110D01*
X006734Y023956D01*
X006657Y023880D01*
D11*
X007346Y022983D02*
X007556Y022983D01*
X007626Y022913D01*
X007626Y022773D01*
X007556Y022703D01*
X007346Y022703D01*
X007346Y022563D02*
X007346Y022983D01*
X007486Y022703D02*
X007626Y022563D01*
X007807Y022563D02*
X007807Y022983D01*
X008087Y022983D01*
X008267Y022913D02*
X008267Y022843D01*
X008337Y022773D01*
X008477Y022773D01*
X008547Y022703D01*
X008547Y022633D01*
X008477Y022563D01*
X008337Y022563D01*
X008267Y022633D01*
X008087Y022563D02*
X007807Y022563D01*
X007807Y022773D02*
X007947Y022773D01*
X008267Y022913D02*
X008337Y022983D01*
X008477Y022983D01*
X008547Y022913D01*
X008727Y022983D02*
X008727Y022563D01*
X009008Y022563D01*
X008867Y022773D02*
X008727Y022773D01*
X008727Y022983D02*
X009008Y022983D01*
X009188Y022983D02*
X009468Y022983D01*
X009328Y022983D02*
X009328Y022563D01*
X010271Y020225D02*
X010201Y020155D01*
X010201Y020015D01*
X010271Y019945D01*
X010412Y019945D01*
X010482Y020015D01*
X010482Y020155D01*
X010412Y020225D01*
X010271Y020225D01*
X010201Y019765D02*
X010201Y019555D01*
X010271Y019485D01*
X010341Y019555D01*
X010341Y019695D01*
X010412Y019765D01*
X010482Y019695D01*
X010482Y019485D01*
X010482Y019318D02*
X010482Y019178D01*
X010482Y019248D02*
X010201Y019248D01*
X010201Y019178D01*
X010061Y019248D02*
X009991Y019248D01*
X010271Y018998D02*
X010482Y018998D01*
X010482Y018858D02*
X010271Y018858D01*
X010201Y018928D01*
X010271Y018998D01*
X010271Y018858D02*
X010201Y018787D01*
X010201Y018717D01*
X010482Y018717D01*
X009529Y018870D02*
X009529Y019080D01*
X009459Y019150D01*
X009389Y019080D01*
X009389Y018940D01*
X009319Y018870D01*
X009249Y018940D01*
X009249Y019150D01*
X009319Y019330D02*
X009249Y019400D01*
X009249Y019611D01*
X009389Y019791D02*
X009249Y020001D01*
X009389Y019791D02*
X009529Y020001D01*
X009529Y019791D02*
X009108Y019791D01*
X009529Y019611D02*
X009529Y019400D01*
X009459Y019330D01*
X009319Y019330D01*
X008446Y019254D02*
X008446Y019464D01*
X008376Y019534D01*
X008306Y019464D01*
X008306Y019324D01*
X008236Y019254D01*
X008166Y019324D01*
X008166Y019534D01*
X008166Y019714D02*
X008166Y019854D01*
X008096Y019784D02*
X008376Y019784D01*
X008446Y019854D01*
X008166Y019080D02*
X008166Y019010D01*
X008306Y018870D01*
X008446Y018870D02*
X008166Y018870D01*
X008124Y016331D02*
X008545Y016331D01*
X008545Y016121D01*
X008475Y016051D01*
X008334Y016051D01*
X008264Y016121D01*
X008264Y016331D01*
X008334Y015871D02*
X008545Y015871D01*
X008334Y015871D02*
X008264Y015800D01*
X008264Y015590D01*
X008545Y015590D01*
X008545Y015410D02*
X008545Y015200D01*
X008475Y015130D01*
X008334Y015130D01*
X008264Y015200D01*
X008264Y015410D01*
X008615Y015410D01*
X008685Y015340D01*
X008685Y015270D01*
X009256Y015350D02*
X009327Y015280D01*
X009467Y015280D01*
X009537Y015350D01*
X009537Y015490D01*
X009467Y015560D01*
X009327Y015560D01*
X009256Y015490D01*
X009256Y015350D01*
X009327Y015100D02*
X009537Y015100D01*
X009537Y014960D02*
X009327Y014960D01*
X009256Y015030D01*
X009327Y015100D01*
X009327Y014960D02*
X009256Y014890D01*
X009256Y014820D01*
X009537Y014820D01*
X010154Y015150D02*
X010434Y015290D01*
X010154Y015430D01*
X010224Y015610D02*
X010364Y015610D01*
X010434Y015680D01*
X010434Y015890D01*
X010364Y016070D02*
X010434Y016140D01*
X010434Y016351D01*
X010154Y016351D02*
X010154Y016140D01*
X010224Y016070D01*
X010364Y016070D01*
X010154Y015890D02*
X010154Y015680D01*
X010224Y015610D01*
X009537Y015741D02*
X009537Y015951D01*
X009467Y016021D01*
X009397Y015951D01*
X009397Y015811D01*
X009327Y015741D01*
X009256Y015811D01*
X009256Y016021D01*
X009256Y016201D02*
X009256Y016271D01*
X009537Y016271D01*
X009537Y016201D02*
X009537Y016341D01*
X009116Y016271D02*
X009046Y016271D01*
X018518Y023172D02*
X018588Y023102D01*
X018868Y023102D01*
X018938Y023172D01*
X018938Y023313D01*
X018868Y023383D01*
X018728Y023383D01*
X018728Y023242D01*
X018588Y023383D02*
X018518Y023313D01*
X018518Y023172D01*
X018518Y023563D02*
X018938Y023843D01*
X018518Y023843D01*
X018518Y024023D02*
X018518Y024233D01*
X018588Y024303D01*
X018868Y024303D01*
X018938Y024233D01*
X018938Y024023D01*
X018518Y024023D01*
X018518Y023563D02*
X018938Y023563D01*
X021089Y024531D02*
X021089Y026972D01*
X016522Y026972D01*
X016522Y027287D01*
X021089Y027287D01*
X021089Y026972D01*
X021392Y026989D02*
X021462Y027059D01*
X021742Y026779D01*
X021812Y026849D01*
X021812Y026989D01*
X021742Y027059D01*
X021462Y027059D01*
X021392Y026989D02*
X021392Y026849D01*
X021462Y026779D01*
X021742Y026779D01*
X021812Y026599D02*
X021392Y026319D01*
X021392Y026139D02*
X021392Y025858D01*
X021392Y025998D02*
X021812Y025998D01*
X021812Y026319D02*
X021392Y026599D01*
X021089Y024531D02*
X016522Y024531D01*
X016522Y026972D01*
X016261Y026958D02*
X016121Y027099D01*
X015841Y027099D01*
X015841Y026818D02*
X016121Y026818D01*
X016261Y026958D01*
X016191Y026638D02*
X016051Y026638D01*
X015981Y026568D01*
X015981Y026498D01*
X016051Y026358D01*
X015841Y026358D01*
X015841Y026638D01*
X016191Y026638D02*
X016261Y026568D01*
X016261Y026428D01*
X016191Y026358D01*
X016051Y026178D02*
X016051Y025898D01*
X015911Y026038D02*
X016191Y026038D01*
X010433Y025096D02*
X010152Y025096D01*
X010293Y025236D02*
X010293Y024956D01*
X022722Y017686D02*
X022862Y017406D01*
X023002Y017686D01*
X023182Y017756D02*
X023252Y017826D01*
X023392Y017826D01*
X023462Y017756D01*
X023462Y017686D01*
X023182Y017406D01*
X023462Y017406D01*
X023643Y017406D02*
X023713Y017406D01*
X023713Y017476D01*
X023643Y017476D01*
X023643Y017406D01*
X023873Y017476D02*
X024153Y017756D01*
X024153Y017476D01*
X024083Y017406D01*
X023943Y017406D01*
X023873Y017476D01*
X023873Y017756D01*
X023943Y017826D01*
X024083Y017826D01*
X024153Y017756D01*
X013435Y005366D02*
X013505Y005296D01*
X013505Y005156D01*
X013435Y005086D01*
X013295Y005156D02*
X013295Y005296D01*
X013365Y005366D01*
X013435Y005366D01*
X013295Y005156D02*
X013225Y005086D01*
X013155Y005086D01*
X013085Y005156D01*
X013085Y005296D01*
X013155Y005366D01*
X013085Y004906D02*
X013085Y004626D01*
X013085Y004766D02*
X013505Y004766D01*
X013505Y004446D02*
X013365Y004305D01*
X013365Y004376D02*
X013365Y004165D01*
X013505Y004165D02*
X013085Y004165D01*
X013085Y004376D01*
X013155Y004446D01*
X013295Y004446D01*
X013365Y004376D01*
X012423Y004305D02*
X012002Y004305D01*
X012002Y004165D02*
X012002Y004446D01*
X012002Y004626D02*
X012423Y004906D01*
X012423Y004626D02*
X012002Y004906D01*
X011438Y004906D02*
X011018Y004626D01*
X011088Y004446D02*
X011228Y004446D01*
X011298Y004376D01*
X011298Y004165D01*
X011438Y004165D02*
X011018Y004165D01*
X011018Y004376D01*
X011088Y004446D01*
X011298Y004305D02*
X011438Y004446D01*
X011438Y004626D02*
X011018Y004906D01*
X010356Y004836D02*
X010356Y004696D01*
X010286Y004626D01*
X010145Y004626D02*
X010075Y004766D01*
X010075Y004836D01*
X010145Y004906D01*
X010286Y004906D01*
X010356Y004836D01*
X010215Y005086D02*
X009935Y005086D01*
X009935Y004906D02*
X009935Y004626D01*
X010145Y004626D01*
X010145Y004446D02*
X010145Y004165D01*
X010005Y004305D02*
X010286Y004305D01*
X009470Y004235D02*
X009470Y004376D01*
X009400Y004446D01*
X009260Y004446D01*
X009260Y004305D01*
X009400Y004165D02*
X009470Y004235D01*
X009400Y004165D02*
X009119Y004165D01*
X009049Y004235D01*
X009049Y004376D01*
X009119Y004446D01*
X009049Y004626D02*
X009470Y004906D01*
X009049Y004906D01*
X009049Y005086D02*
X009049Y005296D01*
X009119Y005366D01*
X009400Y005366D01*
X009470Y005296D01*
X009470Y005086D01*
X009049Y005086D01*
X009049Y004626D02*
X009470Y004626D01*
X009935Y005366D02*
X010215Y005366D01*
X010356Y005226D01*
X010215Y005086D01*
X008486Y005086D02*
X008486Y005296D01*
X008415Y005366D01*
X008135Y005366D01*
X008065Y005296D01*
X008065Y005086D01*
X008486Y005086D01*
X008486Y004906D02*
X008065Y004906D01*
X008065Y004626D02*
X008486Y004906D01*
X008486Y004626D02*
X008065Y004626D01*
X008135Y004446D02*
X008065Y004376D01*
X008065Y004235D01*
X008135Y004165D01*
X008415Y004165D01*
X008486Y004235D01*
X008486Y004376D01*
X008415Y004446D01*
X008275Y004446D01*
X008275Y004305D01*
X007483Y003555D02*
X007433Y003308D01*
X007681Y003357D01*
X007533Y003209D02*
X007235Y003506D01*
X007068Y003338D02*
X007365Y003041D01*
X007316Y002992D02*
X007415Y003091D01*
X007139Y002914D02*
X007139Y002815D01*
X006990Y002666D01*
X006693Y002963D01*
X006792Y002864D02*
X006941Y003013D01*
X007040Y003013D01*
X007139Y002914D01*
X007018Y003289D02*
X007068Y003338D01*
X005856Y004305D02*
X005576Y004305D01*
X005716Y004165D02*
X005716Y004446D01*
X005716Y004626D02*
X005646Y004766D01*
X005646Y004836D01*
X005716Y004906D01*
X005856Y004906D01*
X005926Y004836D01*
X005926Y004696D01*
X005856Y004626D01*
X005716Y004626D02*
X005506Y004626D01*
X005506Y004906D01*
X005506Y005086D02*
X005786Y005086D01*
X005926Y005226D01*
X005786Y005366D01*
X005506Y005366D01*
X004844Y005296D02*
X004844Y005086D01*
X004423Y005086D01*
X004423Y005296D01*
X004494Y005366D01*
X004774Y005366D01*
X004844Y005296D01*
X004844Y004906D02*
X004423Y004906D01*
X004423Y004626D02*
X004844Y004906D01*
X004844Y004626D02*
X004423Y004626D01*
X004494Y004446D02*
X004423Y004376D01*
X004423Y004235D01*
X004494Y004165D01*
X004774Y004165D01*
X004844Y004235D01*
X004844Y004376D01*
X004774Y004446D01*
X004634Y004446D01*
X004634Y004305D01*
X003860Y004305D02*
X003719Y004446D01*
X003439Y004446D01*
X003439Y004626D02*
X003439Y004766D01*
X003439Y004696D02*
X003860Y004696D01*
X003860Y004626D02*
X003860Y004766D01*
X003860Y004933D02*
X003439Y004933D01*
X003860Y005213D01*
X003439Y005213D01*
X002875Y005226D02*
X002455Y005226D01*
X002455Y005086D02*
X002455Y005366D01*
X002525Y004906D02*
X002455Y004836D01*
X002455Y004696D01*
X002525Y004626D01*
X002595Y004626D01*
X002665Y004696D01*
X002665Y004836D01*
X002735Y004906D01*
X002805Y004906D01*
X002875Y004836D01*
X002875Y004696D01*
X002805Y004626D01*
X002875Y004446D02*
X002735Y004305D01*
X002735Y004376D02*
X002735Y004165D01*
X002875Y004165D02*
X002455Y004165D01*
X002455Y004376D01*
X002525Y004446D01*
X002665Y004446D01*
X002735Y004376D01*
X003439Y004165D02*
X003719Y004165D01*
X003860Y004305D01*
X014007Y002993D02*
X014007Y002893D01*
X014106Y002794D01*
X014205Y002794D01*
X014354Y002943D01*
X014403Y002894D02*
X014155Y003141D01*
X014007Y002993D01*
X014283Y003269D02*
X014481Y003070D01*
X014382Y003169D02*
X014382Y003368D01*
X014431Y003417D01*
X014554Y003540D02*
X014703Y003688D01*
X014802Y003688D01*
X014950Y003540D01*
X014752Y003342D02*
X014554Y003540D01*
X014403Y002894D02*
X014403Y002794D01*
X014354Y002745D01*
X015835Y003508D02*
X016115Y003508D01*
X015975Y003508D02*
X015975Y003928D01*
X015835Y003788D01*
X016295Y003858D02*
X016365Y003928D01*
X016505Y003928D01*
X016576Y003858D01*
X016576Y003788D01*
X016295Y003508D01*
X016576Y003508D01*
X016756Y003508D02*
X017036Y003928D01*
X017216Y003858D02*
X017286Y003928D01*
X017426Y003928D01*
X017496Y003858D01*
X017496Y003788D01*
X017216Y003508D01*
X017496Y003508D01*
X017676Y003578D02*
X017957Y003858D01*
X017957Y003578D01*
X017886Y003508D01*
X017746Y003508D01*
X017676Y003578D01*
X017676Y003858D01*
X017746Y003928D01*
X017886Y003928D01*
X017957Y003858D01*
X018137Y003858D02*
X018137Y003578D01*
X018417Y003858D01*
X018417Y003578D01*
X018347Y003508D01*
X018207Y003508D01*
X018137Y003578D01*
X018137Y003858D02*
X018207Y003928D01*
X018347Y003928D01*
X018417Y003858D01*
X018597Y003858D02*
X018597Y003788D01*
X018667Y003718D01*
X018877Y003718D01*
X018877Y003578D02*
X018877Y003858D01*
X018807Y003928D01*
X018667Y003928D01*
X018597Y003858D01*
X018597Y003578D02*
X018667Y003508D01*
X018807Y003508D01*
X018877Y003578D01*
X020310Y003876D02*
X020590Y003876D01*
X020450Y004016D02*
X020450Y003735D01*
X028439Y003673D02*
X028719Y003673D01*
X028860Y003813D01*
X028719Y003953D01*
X028439Y003953D01*
X028439Y004134D02*
X028439Y004274D01*
X028439Y004204D02*
X028860Y004204D01*
X028860Y004134D02*
X028860Y004274D01*
X028860Y004440D02*
X028439Y004440D01*
X028860Y004721D01*
X028439Y004721D01*
X029077Y004889D02*
X029077Y002448D01*
X031833Y002448D01*
X031833Y002133D01*
X029077Y002133D01*
X029077Y002448D01*
X031833Y002448D02*
X031833Y004889D01*
X029077Y004889D01*
X032081Y004706D02*
X032081Y004496D01*
X032501Y004496D01*
X032501Y004706D01*
X032431Y004776D01*
X032151Y004776D01*
X032081Y004706D01*
X032081Y004315D02*
X032501Y004315D01*
X032081Y004035D01*
X032501Y004035D01*
X032431Y003855D02*
X032291Y003855D01*
X032291Y003715D01*
X032151Y003855D02*
X032081Y003785D01*
X032081Y003645D01*
X032151Y003575D01*
X032431Y003575D01*
X032501Y003645D01*
X032501Y003785D01*
X032431Y003855D01*
D12*
X033388Y005740D02*
X027640Y005740D01*
X027640Y009283D01*
X033388Y009283D01*
X033388Y005740D01*
X032701Y010055D02*
X032701Y010280D01*
X032626Y010355D01*
X032551Y010280D01*
X032551Y010130D01*
X032476Y010055D01*
X032401Y010130D01*
X032401Y010355D01*
X032476Y010515D02*
X032626Y010515D01*
X032701Y010590D01*
X032701Y010816D01*
X032701Y010976D02*
X032401Y010976D01*
X032401Y011126D02*
X032401Y011201D01*
X032401Y011126D02*
X032551Y010976D01*
X032401Y010816D02*
X032401Y010590D01*
X032476Y010515D01*
X032225Y010877D02*
X030020Y010877D01*
X030020Y015995D01*
X032225Y015995D01*
X032225Y010877D01*
X032476Y011359D02*
X032401Y011434D01*
X032401Y011585D01*
X032476Y011660D01*
X032551Y011660D01*
X032551Y011359D01*
X032626Y011359D02*
X032476Y011359D01*
X032626Y011359D02*
X032701Y011434D01*
X032701Y011585D01*
X032626Y011820D02*
X032701Y011895D01*
X032626Y011970D01*
X032701Y012045D01*
X032626Y012120D01*
X032401Y012120D01*
X032401Y011820D02*
X032626Y011820D01*
X029132Y013301D02*
X029132Y014501D01*
X026132Y014501D01*
X026132Y013301D01*
X029132Y013301D01*
X032362Y015041D02*
X032362Y015266D01*
X032437Y015341D01*
X032587Y015341D01*
X032662Y015266D01*
X032662Y015041D01*
X032812Y015041D02*
X032362Y015041D01*
X032212Y015501D02*
X032212Y015576D01*
X032662Y015576D01*
X032662Y015501D02*
X032662Y015651D01*
X032587Y015808D02*
X032662Y015883D01*
X032662Y016109D01*
X032362Y016109D01*
X032437Y016269D02*
X032362Y016344D01*
X032362Y016569D01*
X032737Y016569D01*
X032812Y016494D01*
X032812Y016419D01*
X032662Y016344D02*
X032662Y016569D01*
X032662Y016344D02*
X032587Y016269D01*
X032437Y016269D01*
X032362Y015808D02*
X032587Y015808D01*
X026750Y021765D02*
X026750Y023415D01*
X026150Y023143D02*
X026150Y023037D01*
X026538Y023544D02*
X026594Y023517D01*
X026648Y023486D01*
X026700Y023452D01*
X026750Y023415D01*
X025653Y023540D02*
X025596Y023511D01*
X025540Y023478D01*
X025487Y023443D01*
X025436Y023403D01*
X025388Y023361D01*
X025342Y023316D01*
X025299Y023269D01*
X025259Y023219D01*
X025222Y023166D01*
X025189Y023111D01*
X025158Y023055D01*
X025132Y022996D01*
X025109Y022936D01*
X025089Y022875D01*
X025074Y022813D01*
X025062Y022750D01*
X025054Y022686D01*
X025050Y022622D01*
X025050Y022558D01*
X025054Y022494D01*
X025062Y022430D01*
X025074Y022367D01*
X025089Y022305D01*
X025109Y022244D01*
X025132Y022184D01*
X025158Y022125D01*
X025189Y022069D01*
X025222Y022014D01*
X025259Y021961D01*
X025299Y021911D01*
X025342Y021864D01*
X025388Y021819D01*
X025436Y021777D01*
X025487Y021737D01*
X025540Y021702D01*
X025596Y021669D01*
X025653Y021640D01*
X026150Y022037D02*
X026150Y022143D01*
X026547Y021640D02*
X026601Y021667D01*
X026652Y021697D01*
X026702Y021730D01*
X026750Y021765D01*
X026750Y024781D02*
X026750Y026430D01*
X026150Y026158D02*
X026150Y026053D01*
X026538Y026560D02*
X026594Y026533D01*
X026648Y026502D01*
X026700Y026468D01*
X026750Y026431D01*
X025653Y026556D02*
X025596Y026527D01*
X025540Y026494D01*
X025487Y026459D01*
X025436Y026419D01*
X025388Y026377D01*
X025342Y026332D01*
X025299Y026285D01*
X025259Y026235D01*
X025222Y026182D01*
X025189Y026127D01*
X025158Y026071D01*
X025132Y026012D01*
X025109Y025952D01*
X025089Y025891D01*
X025074Y025829D01*
X025062Y025766D01*
X025054Y025702D01*
X025050Y025638D01*
X025050Y025574D01*
X025054Y025510D01*
X025062Y025446D01*
X025074Y025383D01*
X025089Y025321D01*
X025109Y025260D01*
X025132Y025200D01*
X025158Y025141D01*
X025189Y025085D01*
X025222Y025030D01*
X025259Y024977D01*
X025299Y024927D01*
X025342Y024880D01*
X025388Y024835D01*
X025436Y024793D01*
X025487Y024753D01*
X025540Y024718D01*
X025596Y024685D01*
X025653Y024656D01*
X026150Y025053D02*
X026150Y025158D01*
X026547Y024655D02*
X026601Y024682D01*
X026652Y024712D01*
X026702Y024745D01*
X026750Y024780D01*
X015392Y014029D02*
X013523Y014029D01*
X013472Y014027D01*
X013421Y014021D01*
X013370Y014012D01*
X013321Y013998D01*
X013272Y013982D01*
X013225Y013961D01*
X013179Y013937D01*
X013136Y013910D01*
X013095Y013879D01*
X013056Y013846D01*
X013019Y013809D01*
X012986Y013770D01*
X012955Y013729D01*
X012928Y013686D01*
X012904Y013640D01*
X012883Y013593D01*
X012867Y013544D01*
X012853Y013495D01*
X012844Y013444D01*
X012838Y013393D01*
X012836Y013342D01*
X012838Y013291D01*
X012844Y013240D01*
X012853Y013189D01*
X012867Y013140D01*
X012883Y013091D01*
X012904Y013044D01*
X012928Y012999D01*
X012955Y012955D01*
X012986Y012914D01*
X013019Y012875D01*
X013056Y012838D01*
X013095Y012805D01*
X013136Y012774D01*
X013179Y012747D01*
X013225Y012723D01*
X013272Y012702D01*
X013321Y012686D01*
X013370Y012672D01*
X013421Y012663D01*
X013472Y012657D01*
X013523Y012655D01*
X013523Y012654D02*
X015392Y012654D01*
X015392Y012655D02*
X015443Y012657D01*
X015494Y012663D01*
X015545Y012672D01*
X015594Y012686D01*
X015643Y012702D01*
X015690Y012723D01*
X015736Y012747D01*
X015779Y012774D01*
X015820Y012805D01*
X015859Y012838D01*
X015896Y012875D01*
X015929Y012914D01*
X015960Y012955D01*
X015987Y012999D01*
X016011Y013044D01*
X016032Y013091D01*
X016048Y013140D01*
X016062Y013189D01*
X016071Y013240D01*
X016077Y013291D01*
X016079Y013342D01*
X016077Y013393D01*
X016071Y013444D01*
X016062Y013495D01*
X016048Y013544D01*
X016032Y013593D01*
X016011Y013640D01*
X015987Y013686D01*
X015960Y013729D01*
X015929Y013770D01*
X015896Y013809D01*
X015859Y013846D01*
X015820Y013879D01*
X015779Y013910D01*
X015735Y013937D01*
X015690Y013961D01*
X015643Y013982D01*
X015594Y013998D01*
X015545Y014012D01*
X015494Y014021D01*
X015443Y014027D01*
X015392Y014029D01*
X002795Y006524D02*
X002795Y006298D01*
X002795Y006411D02*
X002455Y006411D01*
X002568Y006298D01*
D13*
X016259Y017385D02*
X016259Y018116D01*
X016502Y018116D02*
X016015Y018116D01*
X016807Y017751D02*
X016807Y017507D01*
X016929Y017385D01*
X017172Y017385D01*
X017294Y017629D02*
X016807Y017629D01*
X016807Y017751D02*
X016929Y017873D01*
X017172Y017873D01*
X017294Y017751D01*
X017294Y017629D01*
X017599Y017751D02*
X017721Y017873D01*
X018086Y017873D01*
X017964Y017629D02*
X017721Y017629D01*
X017599Y017751D01*
X017599Y017385D02*
X017964Y017385D01*
X018086Y017507D01*
X017964Y017629D01*
X018391Y017751D02*
X018513Y017873D01*
X018878Y017873D01*
X018756Y017629D02*
X018513Y017629D01*
X018391Y017751D01*
X018391Y017385D02*
X018756Y017385D01*
X018878Y017507D01*
X018756Y017629D01*
X019183Y017507D02*
X019304Y017385D01*
X019670Y017385D01*
X019670Y017264D02*
X019548Y017142D01*
X019426Y017142D01*
X019670Y017264D02*
X019670Y017873D01*
X019975Y017994D02*
X019975Y017507D01*
X020096Y017385D01*
X020340Y017385D01*
X020462Y017507D01*
X020766Y017507D02*
X020888Y017629D01*
X021254Y017629D01*
X021254Y017751D02*
X021254Y017385D01*
X020888Y017385D01*
X020766Y017507D01*
X020888Y017873D02*
X021132Y017873D01*
X021254Y017751D01*
X021558Y017873D02*
X021680Y017873D01*
X021802Y017751D01*
X021924Y017873D01*
X022045Y017751D01*
X022045Y017385D01*
X021802Y017385D02*
X021802Y017751D01*
X021558Y017873D02*
X021558Y017385D01*
X020462Y017994D02*
X020340Y018116D01*
X020096Y018116D01*
X019975Y017994D01*
X019183Y017873D02*
X019183Y017507D01*
D14*
X006301Y002708D02*
X002128Y002708D01*
X002128Y002747D02*
X002128Y003968D01*
X006301Y003968D01*
X006301Y002708D01*
X007758Y002708D02*
X007758Y003968D01*
X007718Y003968D02*
X013860Y003968D01*
X013860Y002708D01*
X007758Y002708D01*
X002640Y003299D02*
X002640Y003338D01*
X014999Y004278D02*
X015092Y004185D01*
X015186Y004185D01*
X015279Y004278D01*
X015279Y004745D01*
X015186Y004745D02*
X015373Y004745D01*
X015607Y004465D02*
X015607Y004278D01*
X015700Y004185D01*
X015887Y004185D01*
X015980Y004278D01*
X015980Y004465D01*
X015887Y004558D01*
X015700Y004558D01*
X015607Y004465D01*
X016214Y004465D02*
X016214Y004278D01*
X016308Y004185D01*
X016495Y004185D01*
X016588Y004371D02*
X016214Y004371D01*
X016214Y004465D02*
X016308Y004558D01*
X016495Y004558D01*
X016588Y004465D01*
X016588Y004371D01*
X017430Y004185D02*
X017804Y004185D01*
X018038Y004278D02*
X018131Y004185D01*
X018318Y004185D01*
X018411Y004278D01*
X018411Y004465D01*
X018318Y004558D01*
X018131Y004558D01*
X018038Y004465D01*
X018038Y004278D01*
X017430Y004185D02*
X017430Y004745D01*
X018645Y004558D02*
X018832Y004558D01*
X018739Y004652D02*
X018739Y004278D01*
X018832Y004185D01*
X019050Y004185D02*
X019424Y004185D01*
X019424Y004558D02*
X019050Y004558D01*
X019050Y004185D02*
X019424Y004558D01*
X022399Y006604D02*
X022699Y006604D01*
X022999Y006604D01*
X022999Y006804D02*
X022699Y006804D01*
X022399Y006804D01*
X017897Y006975D02*
X017897Y007275D01*
X017897Y007575D01*
X017697Y007575D02*
X017697Y007275D01*
X017697Y006975D01*
X011609Y013781D02*
X011309Y013781D01*
X011009Y013781D01*
X011009Y013981D02*
X011309Y013981D01*
X011609Y013981D01*
X006065Y017117D02*
X005671Y017117D01*
X006065Y017117D02*
X006065Y021842D01*
X005671Y021842D01*
X005671Y022629D02*
X006065Y022629D01*
X006065Y027354D01*
X005671Y027354D01*
X004490Y027354D02*
X001734Y027354D01*
X001734Y026763D01*
X001340Y026763D01*
X001340Y023220D02*
X001734Y023220D01*
X001734Y022629D01*
X004490Y022629D01*
X004490Y021842D02*
X001734Y021842D01*
X001734Y021251D01*
X001340Y021251D01*
X001340Y017708D02*
X001734Y017708D01*
X001734Y017117D01*
X004490Y017117D01*
X009483Y021842D02*
X009485Y021925D01*
X009491Y022009D01*
X009501Y022091D01*
X009516Y022174D01*
X009534Y022255D01*
X009556Y022335D01*
X009582Y022415D01*
X009612Y022493D01*
X009646Y022569D01*
X009684Y022643D01*
X009725Y022716D01*
X009770Y022786D01*
X009818Y022855D01*
X009869Y022920D01*
X009923Y022984D01*
X009981Y023044D01*
X010041Y023102D01*
X010105Y023156D01*
X010170Y023207D01*
X010239Y023255D01*
X010309Y023300D01*
X010382Y023341D01*
X010456Y023379D01*
X010532Y023413D01*
X010610Y023443D01*
X010690Y023469D01*
X010770Y023491D01*
X010851Y023509D01*
X010934Y023524D01*
X011016Y023534D01*
X011100Y023540D01*
X011183Y023542D01*
X011266Y023540D01*
X011350Y023534D01*
X011432Y023524D01*
X011515Y023509D01*
X011596Y023491D01*
X011676Y023469D01*
X011756Y023443D01*
X011834Y023413D01*
X011910Y023379D01*
X011984Y023341D01*
X012057Y023300D01*
X012127Y023255D01*
X012196Y023207D01*
X012261Y023156D01*
X012325Y023102D01*
X012385Y023044D01*
X012443Y022984D01*
X012497Y022920D01*
X012548Y022855D01*
X012596Y022786D01*
X012641Y022716D01*
X012682Y022643D01*
X012720Y022569D01*
X012754Y022493D01*
X012784Y022415D01*
X012810Y022335D01*
X012832Y022255D01*
X012850Y022174D01*
X012865Y022091D01*
X012875Y022009D01*
X012881Y021925D01*
X012883Y021842D01*
X012881Y021759D01*
X012875Y021675D01*
X012865Y021593D01*
X012850Y021510D01*
X012832Y021429D01*
X012810Y021349D01*
X012784Y021269D01*
X012754Y021191D01*
X012720Y021115D01*
X012682Y021041D01*
X012641Y020968D01*
X012596Y020898D01*
X012548Y020829D01*
X012497Y020764D01*
X012443Y020700D01*
X012385Y020640D01*
X012325Y020582D01*
X012261Y020528D01*
X012196Y020477D01*
X012127Y020429D01*
X012057Y020384D01*
X011984Y020343D01*
X011910Y020305D01*
X011834Y020271D01*
X011756Y020241D01*
X011676Y020215D01*
X011596Y020193D01*
X011515Y020175D01*
X011432Y020160D01*
X011350Y020150D01*
X011266Y020144D01*
X011183Y020142D01*
X011100Y020144D01*
X011016Y020150D01*
X010934Y020160D01*
X010851Y020175D01*
X010770Y020193D01*
X010690Y020215D01*
X010610Y020241D01*
X010532Y020271D01*
X010456Y020305D01*
X010382Y020343D01*
X010309Y020384D01*
X010239Y020429D01*
X010170Y020477D01*
X010105Y020528D01*
X010041Y020582D01*
X009981Y020640D01*
X009923Y020700D01*
X009869Y020764D01*
X009818Y020829D01*
X009770Y020898D01*
X009725Y020968D01*
X009684Y021041D01*
X009646Y021115D01*
X009612Y021191D01*
X009582Y021269D01*
X009556Y021349D01*
X009534Y021429D01*
X009516Y021510D01*
X009501Y021593D01*
X009491Y021675D01*
X009485Y021759D01*
X009483Y021842D01*
X012436Y024795D02*
X012438Y024878D01*
X012444Y024962D01*
X012454Y025044D01*
X012469Y025127D01*
X012487Y025208D01*
X012509Y025288D01*
X012535Y025368D01*
X012565Y025446D01*
X012599Y025522D01*
X012637Y025596D01*
X012678Y025669D01*
X012723Y025739D01*
X012771Y025808D01*
X012822Y025873D01*
X012876Y025937D01*
X012934Y025997D01*
X012994Y026055D01*
X013058Y026109D01*
X013123Y026160D01*
X013192Y026208D01*
X013262Y026253D01*
X013335Y026294D01*
X013409Y026332D01*
X013485Y026366D01*
X013563Y026396D01*
X013643Y026422D01*
X013723Y026444D01*
X013804Y026462D01*
X013887Y026477D01*
X013969Y026487D01*
X014053Y026493D01*
X014136Y026495D01*
X014219Y026493D01*
X014303Y026487D01*
X014385Y026477D01*
X014468Y026462D01*
X014549Y026444D01*
X014629Y026422D01*
X014709Y026396D01*
X014787Y026366D01*
X014863Y026332D01*
X014937Y026294D01*
X015010Y026253D01*
X015080Y026208D01*
X015149Y026160D01*
X015214Y026109D01*
X015278Y026055D01*
X015338Y025997D01*
X015396Y025937D01*
X015450Y025873D01*
X015501Y025808D01*
X015549Y025739D01*
X015594Y025669D01*
X015635Y025596D01*
X015673Y025522D01*
X015707Y025446D01*
X015737Y025368D01*
X015763Y025288D01*
X015785Y025208D01*
X015803Y025127D01*
X015818Y025044D01*
X015828Y024962D01*
X015834Y024878D01*
X015836Y024795D01*
X015834Y024712D01*
X015828Y024628D01*
X015818Y024546D01*
X015803Y024463D01*
X015785Y024382D01*
X015763Y024302D01*
X015737Y024222D01*
X015707Y024144D01*
X015673Y024068D01*
X015635Y023994D01*
X015594Y023921D01*
X015549Y023851D01*
X015501Y023782D01*
X015450Y023717D01*
X015396Y023653D01*
X015338Y023593D01*
X015278Y023535D01*
X015214Y023481D01*
X015149Y023430D01*
X015080Y023382D01*
X015010Y023337D01*
X014937Y023296D01*
X014863Y023258D01*
X014787Y023224D01*
X014709Y023194D01*
X014629Y023168D01*
X014549Y023146D01*
X014468Y023128D01*
X014385Y023113D01*
X014303Y023103D01*
X014219Y023097D01*
X014136Y023095D01*
X014053Y023097D01*
X013969Y023103D01*
X013887Y023113D01*
X013804Y023128D01*
X013723Y023146D01*
X013643Y023168D01*
X013563Y023194D01*
X013485Y023224D01*
X013409Y023258D01*
X013335Y023296D01*
X013262Y023337D01*
X013192Y023382D01*
X013123Y023430D01*
X013058Y023481D01*
X012994Y023535D01*
X012934Y023593D01*
X012876Y023653D01*
X012822Y023717D01*
X012771Y023782D01*
X012723Y023851D01*
X012678Y023921D01*
X012637Y023994D01*
X012599Y024068D01*
X012565Y024144D01*
X012535Y024222D01*
X012509Y024302D01*
X012487Y024382D01*
X012469Y024463D01*
X012454Y024546D01*
X012444Y024628D01*
X012438Y024712D01*
X012436Y024795D01*
X015389Y021842D02*
X015391Y021925D01*
X015397Y022009D01*
X015407Y022091D01*
X015422Y022174D01*
X015440Y022255D01*
X015462Y022335D01*
X015488Y022415D01*
X015518Y022493D01*
X015552Y022569D01*
X015590Y022643D01*
X015631Y022716D01*
X015676Y022786D01*
X015724Y022855D01*
X015775Y022920D01*
X015829Y022984D01*
X015887Y023044D01*
X015947Y023102D01*
X016011Y023156D01*
X016076Y023207D01*
X016145Y023255D01*
X016215Y023300D01*
X016288Y023341D01*
X016362Y023379D01*
X016438Y023413D01*
X016516Y023443D01*
X016596Y023469D01*
X016676Y023491D01*
X016757Y023509D01*
X016840Y023524D01*
X016922Y023534D01*
X017006Y023540D01*
X017089Y023542D01*
X017172Y023540D01*
X017256Y023534D01*
X017338Y023524D01*
X017421Y023509D01*
X017502Y023491D01*
X017582Y023469D01*
X017662Y023443D01*
X017740Y023413D01*
X017816Y023379D01*
X017890Y023341D01*
X017963Y023300D01*
X018033Y023255D01*
X018102Y023207D01*
X018167Y023156D01*
X018231Y023102D01*
X018291Y023044D01*
X018349Y022984D01*
X018403Y022920D01*
X018454Y022855D01*
X018502Y022786D01*
X018547Y022716D01*
X018588Y022643D01*
X018626Y022569D01*
X018660Y022493D01*
X018690Y022415D01*
X018716Y022335D01*
X018738Y022255D01*
X018756Y022174D01*
X018771Y022091D01*
X018781Y022009D01*
X018787Y021925D01*
X018789Y021842D01*
X018787Y021759D01*
X018781Y021675D01*
X018771Y021593D01*
X018756Y021510D01*
X018738Y021429D01*
X018716Y021349D01*
X018690Y021269D01*
X018660Y021191D01*
X018626Y021115D01*
X018588Y021041D01*
X018547Y020968D01*
X018502Y020898D01*
X018454Y020829D01*
X018403Y020764D01*
X018349Y020700D01*
X018291Y020640D01*
X018231Y020582D01*
X018167Y020528D01*
X018102Y020477D01*
X018033Y020429D01*
X017963Y020384D01*
X017890Y020343D01*
X017816Y020305D01*
X017740Y020271D01*
X017662Y020241D01*
X017582Y020215D01*
X017502Y020193D01*
X017421Y020175D01*
X017338Y020160D01*
X017256Y020150D01*
X017172Y020144D01*
X017089Y020142D01*
X017006Y020144D01*
X016922Y020150D01*
X016840Y020160D01*
X016757Y020175D01*
X016676Y020193D01*
X016596Y020215D01*
X016516Y020241D01*
X016438Y020271D01*
X016362Y020305D01*
X016288Y020343D01*
X016215Y020384D01*
X016145Y020429D01*
X016076Y020477D01*
X016011Y020528D01*
X015947Y020582D01*
X015887Y020640D01*
X015829Y020700D01*
X015775Y020764D01*
X015724Y020829D01*
X015676Y020898D01*
X015631Y020968D01*
X015590Y021041D01*
X015552Y021115D01*
X015518Y021191D01*
X015488Y021269D01*
X015462Y021349D01*
X015440Y021429D01*
X015422Y021510D01*
X015407Y021593D01*
X015397Y021675D01*
X015391Y021759D01*
X015389Y021842D01*
X012436Y018889D02*
X012438Y018972D01*
X012444Y019056D01*
X012454Y019138D01*
X012469Y019221D01*
X012487Y019302D01*
X012509Y019382D01*
X012535Y019462D01*
X012565Y019540D01*
X012599Y019616D01*
X012637Y019690D01*
X012678Y019763D01*
X012723Y019833D01*
X012771Y019902D01*
X012822Y019967D01*
X012876Y020031D01*
X012934Y020091D01*
X012994Y020149D01*
X013058Y020203D01*
X013123Y020254D01*
X013192Y020302D01*
X013262Y020347D01*
X013335Y020388D01*
X013409Y020426D01*
X013485Y020460D01*
X013563Y020490D01*
X013643Y020516D01*
X013723Y020538D01*
X013804Y020556D01*
X013887Y020571D01*
X013969Y020581D01*
X014053Y020587D01*
X014136Y020589D01*
X014219Y020587D01*
X014303Y020581D01*
X014385Y020571D01*
X014468Y020556D01*
X014549Y020538D01*
X014629Y020516D01*
X014709Y020490D01*
X014787Y020460D01*
X014863Y020426D01*
X014937Y020388D01*
X015010Y020347D01*
X015080Y020302D01*
X015149Y020254D01*
X015214Y020203D01*
X015278Y020149D01*
X015338Y020091D01*
X015396Y020031D01*
X015450Y019967D01*
X015501Y019902D01*
X015549Y019833D01*
X015594Y019763D01*
X015635Y019690D01*
X015673Y019616D01*
X015707Y019540D01*
X015737Y019462D01*
X015763Y019382D01*
X015785Y019302D01*
X015803Y019221D01*
X015818Y019138D01*
X015828Y019056D01*
X015834Y018972D01*
X015836Y018889D01*
X015834Y018806D01*
X015828Y018722D01*
X015818Y018640D01*
X015803Y018557D01*
X015785Y018476D01*
X015763Y018396D01*
X015737Y018316D01*
X015707Y018238D01*
X015673Y018162D01*
X015635Y018088D01*
X015594Y018015D01*
X015549Y017945D01*
X015501Y017876D01*
X015450Y017811D01*
X015396Y017747D01*
X015338Y017687D01*
X015278Y017629D01*
X015214Y017575D01*
X015149Y017524D01*
X015080Y017476D01*
X015010Y017431D01*
X014937Y017390D01*
X014863Y017352D01*
X014787Y017318D01*
X014709Y017288D01*
X014629Y017262D01*
X014549Y017240D01*
X014468Y017222D01*
X014385Y017207D01*
X014303Y017197D01*
X014219Y017191D01*
X014136Y017189D01*
X014053Y017191D01*
X013969Y017197D01*
X013887Y017207D01*
X013804Y017222D01*
X013723Y017240D01*
X013643Y017262D01*
X013563Y017288D01*
X013485Y017318D01*
X013409Y017352D01*
X013335Y017390D01*
X013262Y017431D01*
X013192Y017476D01*
X013123Y017524D01*
X013058Y017575D01*
X012994Y017629D01*
X012934Y017687D01*
X012876Y017747D01*
X012822Y017811D01*
X012771Y017876D01*
X012723Y017945D01*
X012678Y018015D01*
X012637Y018088D01*
X012599Y018162D01*
X012565Y018238D01*
X012535Y018316D01*
X012509Y018396D01*
X012487Y018476D01*
X012469Y018557D01*
X012454Y018640D01*
X012444Y018722D01*
X012438Y018806D01*
X012436Y018889D01*
X021294Y019873D02*
X021296Y019956D01*
X021302Y020040D01*
X021312Y020122D01*
X021327Y020205D01*
X021345Y020286D01*
X021367Y020366D01*
X021393Y020446D01*
X021423Y020524D01*
X021457Y020600D01*
X021495Y020674D01*
X021536Y020747D01*
X021581Y020817D01*
X021629Y020886D01*
X021680Y020951D01*
X021734Y021015D01*
X021792Y021075D01*
X021852Y021133D01*
X021916Y021187D01*
X021981Y021238D01*
X022050Y021286D01*
X022120Y021331D01*
X022193Y021372D01*
X022267Y021410D01*
X022343Y021444D01*
X022421Y021474D01*
X022501Y021500D01*
X022581Y021522D01*
X022662Y021540D01*
X022745Y021555D01*
X022827Y021565D01*
X022911Y021571D01*
X022994Y021573D01*
X023077Y021571D01*
X023161Y021565D01*
X023243Y021555D01*
X023326Y021540D01*
X023407Y021522D01*
X023487Y021500D01*
X023567Y021474D01*
X023645Y021444D01*
X023721Y021410D01*
X023795Y021372D01*
X023868Y021331D01*
X023938Y021286D01*
X024007Y021238D01*
X024072Y021187D01*
X024136Y021133D01*
X024196Y021075D01*
X024254Y021015D01*
X024308Y020951D01*
X024359Y020886D01*
X024407Y020817D01*
X024452Y020747D01*
X024493Y020674D01*
X024531Y020600D01*
X024565Y020524D01*
X024595Y020446D01*
X024621Y020366D01*
X024643Y020286D01*
X024661Y020205D01*
X024676Y020122D01*
X024686Y020040D01*
X024692Y019956D01*
X024694Y019873D01*
X024692Y019790D01*
X024686Y019706D01*
X024676Y019624D01*
X024661Y019541D01*
X024643Y019460D01*
X024621Y019380D01*
X024595Y019300D01*
X024565Y019222D01*
X024531Y019146D01*
X024493Y019072D01*
X024452Y018999D01*
X024407Y018929D01*
X024359Y018860D01*
X024308Y018795D01*
X024254Y018731D01*
X024196Y018671D01*
X024136Y018613D01*
X024072Y018559D01*
X024007Y018508D01*
X023938Y018460D01*
X023868Y018415D01*
X023795Y018374D01*
X023721Y018336D01*
X023645Y018302D01*
X023567Y018272D01*
X023487Y018246D01*
X023407Y018224D01*
X023326Y018206D01*
X023243Y018191D01*
X023161Y018181D01*
X023077Y018175D01*
X022994Y018173D01*
X022911Y018175D01*
X022827Y018181D01*
X022745Y018191D01*
X022662Y018206D01*
X022581Y018224D01*
X022501Y018246D01*
X022421Y018272D01*
X022343Y018302D01*
X022267Y018336D01*
X022193Y018374D01*
X022120Y018415D01*
X022050Y018460D01*
X021981Y018508D01*
X021916Y018559D01*
X021852Y018613D01*
X021792Y018671D01*
X021734Y018731D01*
X021680Y018795D01*
X021629Y018860D01*
X021581Y018929D01*
X021536Y018999D01*
X021495Y019072D01*
X021457Y019146D01*
X021423Y019222D01*
X021393Y019300D01*
X021367Y019380D01*
X021345Y019460D01*
X021327Y019541D01*
X021312Y019624D01*
X021302Y019706D01*
X021296Y019790D01*
X021294Y019873D01*
X021294Y023810D02*
X021296Y023893D01*
X021302Y023977D01*
X021312Y024059D01*
X021327Y024142D01*
X021345Y024223D01*
X021367Y024303D01*
X021393Y024383D01*
X021423Y024461D01*
X021457Y024537D01*
X021495Y024611D01*
X021536Y024684D01*
X021581Y024754D01*
X021629Y024823D01*
X021680Y024888D01*
X021734Y024952D01*
X021792Y025012D01*
X021852Y025070D01*
X021916Y025124D01*
X021981Y025175D01*
X022050Y025223D01*
X022120Y025268D01*
X022193Y025309D01*
X022267Y025347D01*
X022343Y025381D01*
X022421Y025411D01*
X022501Y025437D01*
X022581Y025459D01*
X022662Y025477D01*
X022745Y025492D01*
X022827Y025502D01*
X022911Y025508D01*
X022994Y025510D01*
X023077Y025508D01*
X023161Y025502D01*
X023243Y025492D01*
X023326Y025477D01*
X023407Y025459D01*
X023487Y025437D01*
X023567Y025411D01*
X023645Y025381D01*
X023721Y025347D01*
X023795Y025309D01*
X023868Y025268D01*
X023938Y025223D01*
X024007Y025175D01*
X024072Y025124D01*
X024136Y025070D01*
X024196Y025012D01*
X024254Y024952D01*
X024308Y024888D01*
X024359Y024823D01*
X024407Y024754D01*
X024452Y024684D01*
X024493Y024611D01*
X024531Y024537D01*
X024565Y024461D01*
X024595Y024383D01*
X024621Y024303D01*
X024643Y024223D01*
X024661Y024142D01*
X024676Y024059D01*
X024686Y023977D01*
X024692Y023893D01*
X024694Y023810D01*
X024692Y023727D01*
X024686Y023643D01*
X024676Y023561D01*
X024661Y023478D01*
X024643Y023397D01*
X024621Y023317D01*
X024595Y023237D01*
X024565Y023159D01*
X024531Y023083D01*
X024493Y023009D01*
X024452Y022936D01*
X024407Y022866D01*
X024359Y022797D01*
X024308Y022732D01*
X024254Y022668D01*
X024196Y022608D01*
X024136Y022550D01*
X024072Y022496D01*
X024007Y022445D01*
X023938Y022397D01*
X023868Y022352D01*
X023795Y022311D01*
X023721Y022273D01*
X023645Y022239D01*
X023567Y022209D01*
X023487Y022183D01*
X023407Y022161D01*
X023326Y022143D01*
X023243Y022128D01*
X023161Y022118D01*
X023077Y022112D01*
X022994Y022110D01*
X022911Y022112D01*
X022827Y022118D01*
X022745Y022128D01*
X022662Y022143D01*
X022581Y022161D01*
X022501Y022183D01*
X022421Y022209D01*
X022343Y022239D01*
X022267Y022273D01*
X022193Y022311D01*
X022120Y022352D01*
X022050Y022397D01*
X021981Y022445D01*
X021916Y022496D01*
X021852Y022550D01*
X021792Y022608D01*
X021734Y022668D01*
X021680Y022732D01*
X021629Y022797D01*
X021581Y022866D01*
X021536Y022936D01*
X021495Y023009D01*
X021457Y023083D01*
X021423Y023159D01*
X021393Y023237D01*
X021367Y023317D01*
X021345Y023397D01*
X021327Y023478D01*
X021312Y023561D01*
X021302Y023643D01*
X021296Y023727D01*
X021294Y023810D01*
X028112Y022629D02*
X028112Y027354D01*
X028506Y027354D01*
X029687Y027354D02*
X032443Y027354D01*
X032443Y026763D01*
X032837Y026763D01*
X032837Y023220D02*
X032443Y023220D01*
X032443Y022629D01*
X029687Y022629D01*
X029687Y021842D02*
X032443Y021842D01*
X032443Y021251D01*
X032837Y021251D01*
X032837Y017708D02*
X032443Y017708D01*
X032443Y017117D01*
X029687Y017117D01*
X028506Y017117D02*
X028112Y017117D01*
X028112Y021842D01*
X028506Y021842D01*
X028506Y022629D02*
X028112Y022629D01*
X028529Y012013D02*
X028829Y012013D01*
X029129Y012013D01*
X029129Y011813D02*
X028829Y011813D01*
X028529Y011813D01*
D15*
X029439Y011991D02*
X029810Y011991D01*
X029810Y011868D02*
X029810Y012115D01*
X029748Y012236D02*
X029810Y012298D01*
X029810Y012483D01*
X029563Y012483D01*
X029625Y012605D02*
X029625Y012728D01*
X029810Y012605D02*
X029439Y012605D01*
X029439Y012851D01*
X029563Y012236D02*
X029748Y012236D01*
X029439Y011991D02*
X029563Y011868D01*
X029748Y011746D02*
X029810Y011746D01*
X029810Y011684D01*
X029748Y011684D01*
X029748Y011746D01*
X029748Y011562D02*
X029810Y011501D01*
X029810Y011377D01*
X029748Y011316D01*
X029501Y011562D01*
X029748Y011562D01*
X029748Y011316D02*
X029501Y011316D01*
X029439Y011377D01*
X029439Y011501D01*
X029501Y011562D01*
X027996Y013766D02*
X028057Y013828D01*
X027996Y013766D02*
X027872Y013766D01*
X027811Y013828D01*
X027811Y014075D01*
X027872Y014137D01*
X027996Y014137D01*
X028057Y014075D01*
X027689Y014137D02*
X027442Y014137D01*
X027566Y014137D02*
X027566Y013766D01*
X027321Y013951D02*
X027259Y013890D01*
X027074Y013890D01*
X027074Y013766D02*
X027074Y014137D01*
X027259Y014137D01*
X027321Y014075D01*
X027321Y013951D01*
X025739Y012746D02*
X025739Y012499D01*
X026109Y012499D01*
X026109Y012378D02*
X025862Y012378D01*
X025924Y012499D02*
X025924Y012623D01*
X026109Y012378D02*
X026109Y012193D01*
X026047Y012131D01*
X025862Y012131D01*
X025800Y012009D02*
X026047Y011763D01*
X026109Y011824D01*
X026109Y011948D01*
X026047Y012009D01*
X025800Y012009D01*
X025739Y011948D01*
X025739Y011824D01*
X025800Y011763D01*
X026047Y011763D01*
X026109Y011641D02*
X026109Y011394D01*
X026109Y011518D02*
X025739Y011518D01*
X025862Y011394D01*
X022855Y014424D02*
X022794Y014424D01*
X022855Y014424D02*
X022917Y014486D01*
X022917Y014794D01*
X022917Y014547D02*
X022732Y014547D01*
X022670Y014609D01*
X022670Y014794D01*
X022549Y014733D02*
X022549Y014547D01*
X022363Y014547D01*
X022302Y014609D01*
X022363Y014671D01*
X022549Y014671D01*
X022549Y014733D02*
X022487Y014794D01*
X022363Y014794D01*
X022180Y014794D02*
X022118Y014794D01*
X021995Y014671D01*
X021995Y014794D02*
X021995Y014547D01*
X021873Y014794D02*
X021811Y014794D01*
X021688Y014671D01*
X021567Y014671D02*
X021381Y014671D01*
X021320Y014609D01*
X021381Y014547D01*
X021567Y014547D01*
X021567Y014733D01*
X021505Y014794D01*
X021381Y014794D01*
X021688Y014794D02*
X021688Y014547D01*
X020830Y014547D02*
X020830Y014733D01*
X020768Y014794D01*
X020706Y014733D01*
X020706Y014547D01*
X020583Y014547D02*
X020583Y014794D01*
X020645Y014794D01*
X020706Y014733D01*
X020462Y014733D02*
X020462Y014547D01*
X020462Y014733D02*
X020400Y014794D01*
X020276Y014794D01*
X020215Y014733D01*
X020093Y014733D02*
X020032Y014794D01*
X019908Y014794D01*
X019846Y014733D01*
X019846Y014609D01*
X019908Y014547D01*
X020032Y014547D01*
X020093Y014609D01*
X020093Y014733D01*
X020215Y014918D02*
X020215Y014547D01*
X019356Y014547D02*
X019171Y014671D01*
X019356Y014794D01*
X019171Y014918D02*
X019171Y014547D01*
X019050Y014609D02*
X018988Y014547D01*
X018865Y014547D01*
X018803Y014609D01*
X019050Y014856D01*
X019050Y014609D01*
X019050Y014856D02*
X018988Y014918D01*
X018865Y014918D01*
X018803Y014856D01*
X018803Y014609D01*
X018681Y014547D02*
X018435Y014547D01*
X018558Y014547D02*
X018558Y014918D01*
X018435Y014794D01*
X015358Y014440D02*
X015111Y014193D01*
X015358Y014193D01*
X015358Y014440D02*
X015111Y014440D01*
X014990Y014378D02*
X014743Y014378D01*
X014743Y014193D02*
X014743Y014563D01*
X014621Y014563D02*
X014621Y014193D01*
X014375Y014193D02*
X014375Y014563D01*
X014498Y014440D01*
X014621Y014563D01*
X014253Y014563D02*
X014130Y014502D01*
X014006Y014378D01*
X014191Y014378D01*
X014253Y014317D01*
X014253Y014255D01*
X014191Y014193D01*
X014068Y014193D01*
X014006Y014255D01*
X014006Y014378D01*
X013885Y014193D02*
X013638Y014193D01*
X013761Y014193D02*
X013761Y014563D01*
X013638Y014440D01*
X014990Y014563D02*
X014990Y014193D01*
X012251Y013983D02*
X011880Y013983D01*
X011880Y014229D01*
X012066Y014106D02*
X012066Y013983D01*
X012004Y013861D02*
X012251Y013861D01*
X012251Y013676D01*
X012189Y013614D01*
X012004Y013614D01*
X011880Y013369D02*
X012251Y013369D01*
X012251Y013246D02*
X012251Y013493D01*
X012004Y013246D02*
X011880Y013369D01*
X012189Y013124D02*
X012251Y013124D01*
X012251Y013062D01*
X012189Y013062D01*
X012189Y013124D01*
X012189Y012940D02*
X011942Y012940D01*
X012189Y012694D01*
X012251Y012755D01*
X012251Y012879D01*
X012189Y012940D01*
X012189Y012694D02*
X011942Y012694D01*
X011880Y012755D01*
X011880Y012879D01*
X011942Y012940D01*
X014881Y010031D02*
X015005Y010154D01*
X015128Y010031D01*
X015128Y009784D01*
X015128Y009969D02*
X014881Y009969D01*
X014881Y010031D02*
X014881Y009784D01*
X015373Y009784D02*
X015373Y010154D01*
X015250Y010154D02*
X015496Y010154D01*
X015618Y010031D02*
X015680Y010031D01*
X015741Y009969D01*
X015803Y010031D01*
X015865Y009969D01*
X015865Y009784D01*
X015741Y009784D02*
X015741Y009969D01*
X015618Y010031D02*
X015618Y009784D01*
X015986Y009845D02*
X015986Y009969D01*
X016048Y010031D01*
X016171Y010031D01*
X016233Y009969D01*
X016233Y009907D01*
X015986Y009907D01*
X015986Y009845D02*
X016048Y009784D01*
X016171Y009784D01*
X016354Y009845D02*
X016416Y009784D01*
X016601Y009784D01*
X016601Y009722D02*
X016601Y010031D01*
X016416Y010031D01*
X016354Y009969D01*
X016354Y009845D01*
X016478Y009660D02*
X016540Y009660D01*
X016601Y009722D01*
X016723Y009845D02*
X016784Y009784D01*
X016970Y009784D01*
X016970Y009969D01*
X016908Y010031D01*
X016784Y010031D01*
X016784Y009907D02*
X016970Y009907D01*
X017091Y009784D02*
X017338Y009784D01*
X017214Y009784D02*
X017214Y010154D01*
X017091Y010031D01*
X016784Y009907D02*
X016723Y009845D01*
X017459Y009845D02*
X017521Y009784D01*
X017645Y009784D01*
X017706Y009845D01*
X017706Y009907D01*
X017645Y009969D01*
X017459Y009969D01*
X017459Y009845D01*
X017459Y009969D02*
X017583Y010092D01*
X017706Y010154D01*
X017828Y010092D02*
X017828Y010031D01*
X017889Y009969D01*
X018013Y009969D01*
X018075Y009907D01*
X018075Y009845D01*
X018013Y009784D01*
X017889Y009784D01*
X017828Y009845D01*
X017828Y009907D01*
X017889Y009969D01*
X018013Y009969D02*
X018075Y010031D01*
X018075Y010092D01*
X018013Y010154D01*
X017889Y010154D01*
X017828Y010092D01*
X018907Y007562D02*
X018846Y007500D01*
X018846Y007253D01*
X019092Y007500D01*
X019092Y007253D01*
X019031Y007192D01*
X018907Y007192D01*
X018846Y007253D01*
X018907Y007562D02*
X019031Y007562D01*
X019092Y007500D01*
X019214Y007253D02*
X019276Y007253D01*
X019276Y007192D01*
X019214Y007192D01*
X019214Y007253D01*
X019398Y007192D02*
X019645Y007192D01*
X019521Y007192D02*
X019521Y007562D01*
X019398Y007438D01*
X019766Y007438D02*
X019766Y007253D01*
X019828Y007192D01*
X020013Y007192D01*
X020013Y007438D01*
X020135Y007377D02*
X020258Y007377D01*
X020135Y007192D02*
X020135Y007562D01*
X020382Y007562D01*
X021690Y007670D02*
X021690Y007424D01*
X022060Y007424D01*
X022060Y007302D02*
X021813Y007302D01*
X021875Y007424D02*
X021875Y007547D01*
X022060Y007302D02*
X022060Y007117D01*
X021998Y007055D01*
X021813Y007055D01*
X021690Y006810D02*
X022060Y006810D01*
X022060Y006687D02*
X022060Y006934D01*
X021813Y006687D02*
X021690Y006810D01*
X021998Y006565D02*
X022060Y006565D01*
X022060Y006503D01*
X021998Y006503D01*
X021998Y006565D01*
X021998Y006381D02*
X022060Y006320D01*
X022060Y006196D01*
X021998Y006135D01*
X021752Y006381D01*
X021998Y006381D01*
X021752Y006381D02*
X021690Y006320D01*
X021690Y006196D01*
X021752Y006135D01*
X021998Y006135D01*
X024397Y005588D02*
X024520Y005711D01*
X024520Y005341D01*
X024397Y005341D02*
X024644Y005341D01*
X024765Y005403D02*
X025012Y005650D01*
X025012Y005403D01*
X024950Y005341D01*
X024827Y005341D01*
X024765Y005403D01*
X024765Y005650D01*
X024827Y005711D01*
X024950Y005711D01*
X025012Y005650D01*
X025133Y005588D02*
X025133Y005403D01*
X025195Y005341D01*
X025380Y005341D01*
X025380Y005588D01*
X025502Y005526D02*
X025625Y005526D01*
X025502Y005341D02*
X025502Y005711D01*
X025749Y005711D01*
X017996Y005739D02*
X017810Y005616D01*
X017996Y005492D01*
X017810Y005492D02*
X017810Y005863D01*
X017565Y005863D02*
X017565Y005492D01*
X017442Y005492D02*
X017689Y005492D01*
X017442Y005739D02*
X017565Y005863D01*
X014019Y006910D02*
X013834Y007033D01*
X014019Y007156D01*
X013834Y007280D02*
X013834Y006910D01*
X013713Y006971D02*
X013651Y006910D01*
X013527Y006910D01*
X013466Y006971D01*
X013713Y007218D01*
X013713Y006971D01*
X013713Y007218D02*
X013651Y007280D01*
X013527Y007280D01*
X013466Y007218D01*
X013466Y006971D01*
X013344Y006910D02*
X013097Y006910D01*
X013221Y006910D02*
X013221Y007280D01*
X013097Y007156D01*
X006436Y008693D02*
X006065Y008693D01*
X006065Y008878D01*
X006127Y008940D01*
X006250Y008940D01*
X006312Y008878D01*
X006312Y008693D01*
X006250Y008572D02*
X006004Y008572D01*
X005942Y008510D01*
X005942Y008386D01*
X006004Y008325D01*
X006250Y008325D01*
X006312Y008386D01*
X006312Y008510D01*
X006250Y008572D01*
X006065Y009061D02*
X006065Y009185D01*
X006004Y009123D02*
X006250Y009123D01*
X006312Y009185D01*
X006250Y009307D02*
X006127Y009307D01*
X006065Y009369D01*
X006065Y009492D01*
X006127Y009554D01*
X006250Y009554D01*
X006312Y009492D01*
X006312Y009369D01*
X006250Y009307D01*
X006250Y009675D02*
X006127Y009675D01*
X006065Y009737D01*
X006065Y009922D01*
X006127Y010044D02*
X006250Y010044D01*
X006312Y010105D01*
X006312Y010229D01*
X006250Y010290D01*
X006127Y010290D01*
X006065Y010229D01*
X006065Y010105D01*
X006127Y010044D01*
X006312Y009922D02*
X006312Y009737D01*
X006250Y009675D01*
X006250Y010412D02*
X006065Y010412D01*
X006250Y010412D02*
X006312Y010474D01*
X006312Y010659D01*
X006065Y010659D01*
X006065Y010780D02*
X006065Y010965D01*
X006127Y011027D01*
X006250Y011027D01*
X006312Y010965D01*
X006312Y010780D01*
X006436Y010780D02*
X006065Y010780D01*
X005942Y011148D02*
X005942Y011210D01*
X006312Y011210D01*
X006312Y011148D02*
X006312Y011272D01*
X006250Y011394D02*
X006127Y011394D01*
X006065Y011456D01*
X006065Y011579D01*
X006127Y011641D01*
X006189Y011641D01*
X006189Y011394D01*
X006250Y011394D02*
X006312Y011456D01*
X006312Y011579D01*
X006312Y011762D02*
X006065Y011762D01*
X006065Y011886D02*
X006065Y011947D01*
X006065Y011886D02*
X006189Y011762D01*
X006127Y012069D02*
X006065Y012131D01*
X006065Y012316D01*
X006189Y012254D02*
X006189Y012131D01*
X006127Y012069D01*
X006312Y012069D02*
X006312Y012254D01*
X006250Y012316D01*
X006189Y012254D01*
X012560Y026634D02*
X012807Y026634D01*
X012928Y026634D02*
X012928Y027004D01*
X013114Y026881D02*
X012928Y026757D01*
X013114Y026634D01*
X012684Y026634D02*
X012684Y027004D01*
X012560Y026881D01*
D16*
X011890Y027250D02*
X013790Y027250D01*
X013840Y027300D01*
X013990Y027300D01*
X014007Y027298D01*
X014024Y027294D01*
X014040Y027287D01*
X014054Y027277D01*
X014067Y027264D01*
X014077Y027250D01*
X014084Y027234D01*
X014088Y027217D01*
X014090Y027200D01*
X014090Y026500D01*
X014088Y026483D01*
X014084Y026466D01*
X014077Y026450D01*
X014067Y026436D01*
X014054Y026423D01*
X014040Y026413D01*
X014024Y026406D01*
X014007Y026402D01*
X013990Y026400D01*
X013840Y026400D01*
X013790Y026450D01*
X011890Y026450D01*
X011840Y026400D01*
X011690Y026400D01*
X011673Y026402D01*
X011656Y026406D01*
X011640Y026413D01*
X011626Y026423D01*
X011613Y026436D01*
X011603Y026450D01*
X011596Y026466D01*
X011592Y026483D01*
X011590Y026500D01*
X011590Y027200D01*
X011592Y027217D01*
X011596Y027234D01*
X011603Y027250D01*
X011613Y027264D01*
X011626Y027277D01*
X011640Y027287D01*
X011656Y027294D01*
X011673Y027298D01*
X011690Y027300D01*
X011840Y027300D01*
X011890Y027250D01*
X009702Y025975D02*
X009702Y025575D01*
X009702Y024625D01*
X009702Y024275D01*
X008902Y023925D02*
X008802Y023925D01*
X008802Y023825D01*
X008202Y023825D01*
X008202Y023925D01*
X008102Y023925D01*
X007302Y024275D02*
X007302Y024625D01*
X007302Y025625D01*
X007302Y025975D01*
X008102Y026325D02*
X008202Y026325D01*
X008202Y026425D01*
X008802Y026425D01*
X008802Y026325D01*
X008902Y026325D01*
X008402Y025125D02*
X008404Y025145D01*
X008410Y025163D01*
X008419Y025181D01*
X008431Y025196D01*
X008446Y025208D01*
X008464Y025217D01*
X008482Y025223D01*
X008502Y025225D01*
X008522Y025223D01*
X008540Y025217D01*
X008558Y025208D01*
X008573Y025196D01*
X008585Y025181D01*
X008594Y025163D01*
X008600Y025145D01*
X008602Y025125D01*
X008600Y025105D01*
X008594Y025087D01*
X008585Y025069D01*
X008573Y025054D01*
X008558Y025042D01*
X008540Y025033D01*
X008522Y025027D01*
X008502Y025025D01*
X008482Y025027D01*
X008464Y025033D01*
X008446Y025042D01*
X008431Y025054D01*
X008419Y025069D01*
X008410Y025087D01*
X008404Y025105D01*
X008402Y025125D01*
X007802Y025125D02*
X007804Y025177D01*
X007810Y025229D01*
X007820Y025281D01*
X007833Y025331D01*
X007850Y025381D01*
X007871Y025429D01*
X007896Y025475D01*
X007924Y025519D01*
X007955Y025561D01*
X007989Y025601D01*
X008026Y025638D01*
X008066Y025672D01*
X008108Y025703D01*
X008152Y025731D01*
X008198Y025756D01*
X008246Y025777D01*
X008296Y025794D01*
X008346Y025807D01*
X008398Y025817D01*
X008450Y025823D01*
X008502Y025825D01*
X008554Y025823D01*
X008606Y025817D01*
X008658Y025807D01*
X008708Y025794D01*
X008758Y025777D01*
X008806Y025756D01*
X008852Y025731D01*
X008896Y025703D01*
X008938Y025672D01*
X008978Y025638D01*
X009015Y025601D01*
X009049Y025561D01*
X009080Y025519D01*
X009108Y025475D01*
X009133Y025429D01*
X009154Y025381D01*
X009171Y025331D01*
X009184Y025281D01*
X009194Y025229D01*
X009200Y025177D01*
X009202Y025125D01*
X009200Y025073D01*
X009194Y025021D01*
X009184Y024969D01*
X009171Y024919D01*
X009154Y024869D01*
X009133Y024821D01*
X009108Y024775D01*
X009080Y024731D01*
X009049Y024689D01*
X009015Y024649D01*
X008978Y024612D01*
X008938Y024578D01*
X008896Y024547D01*
X008852Y024519D01*
X008806Y024494D01*
X008758Y024473D01*
X008708Y024456D01*
X008658Y024443D01*
X008606Y024433D01*
X008554Y024427D01*
X008502Y024425D01*
X008450Y024427D01*
X008398Y024433D01*
X008346Y024443D01*
X008296Y024456D01*
X008246Y024473D01*
X008198Y024494D01*
X008152Y024519D01*
X008108Y024547D01*
X008066Y024578D01*
X008026Y024612D01*
X007989Y024649D01*
X007955Y024689D01*
X007924Y024731D01*
X007896Y024775D01*
X007871Y024821D01*
X007850Y024869D01*
X007833Y024919D01*
X007820Y024969D01*
X007810Y025021D01*
X007804Y025073D01*
X007802Y025125D01*
X008087Y018617D02*
X008587Y018617D01*
X008837Y018367D01*
X008837Y016867D01*
X008587Y016617D01*
X008087Y016617D01*
X007837Y016867D01*
X007837Y018367D01*
X008087Y018617D01*
X008837Y018367D02*
X009087Y018617D01*
X009587Y018617D01*
X009837Y018367D01*
X009837Y016867D01*
X009587Y016617D01*
X009087Y016617D01*
X008837Y016867D01*
X009837Y016867D02*
X010087Y016617D01*
X010587Y016617D01*
X010837Y016867D01*
X010837Y018367D01*
X010587Y018617D01*
X010087Y018617D01*
X009837Y018367D01*
X010909Y014831D02*
X011709Y014831D01*
X011726Y014829D01*
X011743Y014825D01*
X011759Y014818D01*
X011773Y014808D01*
X011786Y014795D01*
X011796Y014781D01*
X011803Y014765D01*
X011807Y014748D01*
X011809Y014731D01*
X011809Y013031D01*
X011807Y013014D01*
X011803Y012997D01*
X011796Y012981D01*
X011786Y012967D01*
X011773Y012954D01*
X011759Y012944D01*
X011743Y012937D01*
X011726Y012933D01*
X011709Y012931D01*
X010909Y012931D01*
X010892Y012933D01*
X010875Y012937D01*
X010859Y012944D01*
X010845Y012954D01*
X010832Y012967D01*
X010822Y012981D01*
X010815Y012997D01*
X010811Y013014D01*
X010809Y013031D01*
X010809Y014731D01*
X010811Y014748D01*
X010815Y014765D01*
X010822Y014781D01*
X010832Y014795D01*
X010845Y014808D01*
X010859Y014818D01*
X010875Y014825D01*
X010892Y014829D01*
X010909Y014831D01*
X011309Y014031D02*
X011309Y013981D01*
X011309Y013781D02*
X011309Y013731D01*
X010801Y012074D02*
X010801Y011074D01*
X024801Y011074D01*
X024801Y010474D01*
X024762Y010472D01*
X024723Y010466D01*
X024685Y010457D01*
X024648Y010444D01*
X024612Y010427D01*
X024579Y010407D01*
X024547Y010383D01*
X024518Y010357D01*
X024492Y010328D01*
X024468Y010296D01*
X024448Y010263D01*
X024431Y010227D01*
X024418Y010190D01*
X024409Y010152D01*
X024403Y010113D01*
X024401Y010074D01*
X024403Y010035D01*
X024409Y009996D01*
X024418Y009958D01*
X024431Y009921D01*
X024448Y009885D01*
X024468Y009852D01*
X024492Y009820D01*
X024518Y009791D01*
X024547Y009765D01*
X024579Y009741D01*
X024612Y009721D01*
X024648Y009704D01*
X024685Y009691D01*
X024723Y009682D01*
X024762Y009676D01*
X024801Y009674D01*
X024801Y009074D01*
X010801Y009074D01*
X010801Y011074D01*
X010801Y012074D02*
X024801Y012074D01*
X024801Y011074D01*
X025544Y011881D02*
X025546Y011947D01*
X025552Y012012D01*
X025562Y012077D01*
X025575Y012142D01*
X025593Y012205D01*
X025614Y012268D01*
X025639Y012328D01*
X025668Y012388D01*
X025700Y012445D01*
X025735Y012501D01*
X025774Y012554D01*
X025816Y012605D01*
X025860Y012653D01*
X025908Y012698D01*
X025958Y012741D01*
X026011Y012780D01*
X026066Y012817D01*
X026123Y012850D01*
X026182Y012879D01*
X026242Y012905D01*
X026304Y012927D01*
X026367Y012946D01*
X026431Y012960D01*
X026496Y012971D01*
X026562Y012978D01*
X026628Y012981D01*
X026693Y012980D01*
X026759Y012975D01*
X026824Y012966D01*
X026889Y012953D01*
X026952Y012937D01*
X027015Y012917D01*
X027076Y012892D01*
X027136Y012865D01*
X027194Y012834D01*
X027250Y012799D01*
X027304Y012761D01*
X027355Y012720D01*
X027404Y012676D01*
X027450Y012629D01*
X027494Y012580D01*
X027534Y012528D01*
X027571Y012473D01*
X027605Y012417D01*
X027635Y012358D01*
X027662Y012298D01*
X027685Y012237D01*
X027704Y012174D01*
X027720Y012110D01*
X027732Y012045D01*
X027740Y011980D01*
X027744Y011914D01*
X027744Y011848D01*
X027740Y011782D01*
X027732Y011717D01*
X027720Y011652D01*
X027704Y011588D01*
X027685Y011525D01*
X027662Y011464D01*
X027635Y011404D01*
X027605Y011345D01*
X027571Y011289D01*
X027534Y011234D01*
X027494Y011182D01*
X027450Y011133D01*
X027404Y011086D01*
X027355Y011042D01*
X027304Y011001D01*
X027250Y010963D01*
X027194Y010928D01*
X027136Y010897D01*
X027076Y010870D01*
X027015Y010845D01*
X026952Y010825D01*
X026889Y010809D01*
X026824Y010796D01*
X026759Y010787D01*
X026693Y010782D01*
X026628Y010781D01*
X026562Y010784D01*
X026496Y010791D01*
X026431Y010802D01*
X026367Y010816D01*
X026304Y010835D01*
X026242Y010857D01*
X026182Y010883D01*
X026123Y010912D01*
X026066Y010945D01*
X026011Y010982D01*
X025958Y011021D01*
X025908Y011064D01*
X025860Y011109D01*
X025816Y011157D01*
X025774Y011208D01*
X025735Y011261D01*
X025700Y011317D01*
X025668Y011374D01*
X025639Y011434D01*
X025614Y011494D01*
X025593Y011557D01*
X025575Y011620D01*
X025562Y011685D01*
X025552Y011750D01*
X025546Y011815D01*
X025544Y011881D01*
X026994Y012531D02*
X027144Y012531D01*
X027294Y012531D01*
X027144Y012531D02*
X027144Y012381D01*
X027144Y012531D02*
X027144Y012681D01*
X028329Y012763D02*
X028329Y011063D01*
X028331Y011046D01*
X028335Y011029D01*
X028342Y011013D01*
X028352Y010999D01*
X028365Y010986D01*
X028379Y010976D01*
X028395Y010969D01*
X028412Y010965D01*
X028429Y010963D01*
X029229Y010963D01*
X029246Y010965D01*
X029263Y010969D01*
X029279Y010976D01*
X029293Y010986D01*
X029306Y010999D01*
X029316Y011013D01*
X029323Y011029D01*
X029327Y011046D01*
X029329Y011063D01*
X029329Y012763D01*
X029327Y012780D01*
X029323Y012797D01*
X029316Y012813D01*
X029306Y012827D01*
X029293Y012840D01*
X029279Y012850D01*
X029263Y012857D01*
X029246Y012861D01*
X029229Y012863D01*
X028429Y012863D01*
X028412Y012861D01*
X028395Y012857D01*
X028379Y012850D01*
X028365Y012840D01*
X028352Y012827D01*
X028342Y012813D01*
X028335Y012797D01*
X028331Y012780D01*
X028329Y012763D01*
X028829Y012063D02*
X028829Y012013D01*
X028829Y011813D02*
X028829Y011763D01*
X024801Y009074D02*
X024801Y008074D01*
X010801Y008074D01*
X010801Y009074D01*
X012572Y007548D02*
X012722Y007548D01*
X012772Y007498D01*
X014672Y007498D01*
X014722Y007548D01*
X014872Y007548D01*
X014889Y007546D01*
X014906Y007542D01*
X014922Y007535D01*
X014936Y007525D01*
X014949Y007512D01*
X014959Y007498D01*
X014966Y007482D01*
X014970Y007465D01*
X014972Y007448D01*
X014972Y006748D01*
X014970Y006731D01*
X014966Y006714D01*
X014959Y006698D01*
X014949Y006684D01*
X014936Y006671D01*
X014922Y006661D01*
X014906Y006654D01*
X014889Y006650D01*
X014872Y006648D01*
X014722Y006648D01*
X014672Y006698D01*
X012772Y006698D01*
X012722Y006648D01*
X012572Y006648D01*
X012555Y006650D01*
X012538Y006654D01*
X012522Y006661D01*
X012508Y006671D01*
X012495Y006684D01*
X012485Y006698D01*
X012478Y006714D01*
X012474Y006731D01*
X012472Y006748D01*
X012472Y007448D01*
X012474Y007465D01*
X012478Y007482D01*
X012485Y007498D01*
X012495Y007512D01*
X012508Y007525D01*
X012522Y007535D01*
X012538Y007542D01*
X012555Y007546D01*
X012572Y007548D01*
X016847Y007675D02*
X016847Y006875D01*
X016849Y006858D01*
X016853Y006841D01*
X016860Y006825D01*
X016870Y006811D01*
X016883Y006798D01*
X016897Y006788D01*
X016913Y006781D01*
X016930Y006777D01*
X016947Y006775D01*
X018647Y006775D01*
X018664Y006777D01*
X018681Y006781D01*
X018697Y006788D01*
X018711Y006798D01*
X018724Y006811D01*
X018734Y006825D01*
X018741Y006841D01*
X018745Y006858D01*
X018747Y006875D01*
X018747Y007675D01*
X018745Y007692D01*
X018741Y007709D01*
X018734Y007725D01*
X018724Y007739D01*
X018711Y007752D01*
X018697Y007762D01*
X018681Y007769D01*
X018664Y007773D01*
X018647Y007775D01*
X016947Y007775D01*
X016930Y007773D01*
X016913Y007769D01*
X016897Y007762D01*
X016883Y007752D01*
X016870Y007739D01*
X016860Y007725D01*
X016853Y007709D01*
X016849Y007692D01*
X016847Y007675D01*
X017647Y007275D02*
X017697Y007275D01*
X017897Y007275D02*
X017947Y007275D01*
X018848Y006142D02*
X018798Y006092D01*
X016898Y006092D01*
X016848Y006142D01*
X016698Y006142D01*
X016681Y006140D01*
X016664Y006136D01*
X016648Y006129D01*
X016634Y006119D01*
X016621Y006106D01*
X016611Y006092D01*
X016604Y006076D01*
X016600Y006059D01*
X016598Y006042D01*
X016598Y005342D01*
X016600Y005325D01*
X016604Y005308D01*
X016611Y005292D01*
X016621Y005278D01*
X016634Y005265D01*
X016648Y005255D01*
X016664Y005248D01*
X016681Y005244D01*
X016698Y005242D01*
X016848Y005242D01*
X016898Y005292D01*
X018798Y005292D01*
X018848Y005242D01*
X018998Y005242D01*
X019015Y005244D01*
X019032Y005248D01*
X019048Y005255D01*
X019062Y005265D01*
X019075Y005278D01*
X019085Y005292D01*
X019092Y005308D01*
X019096Y005325D01*
X019098Y005342D01*
X019098Y006042D01*
X019096Y006059D01*
X019092Y006076D01*
X019085Y006092D01*
X019075Y006106D01*
X019062Y006119D01*
X019048Y006129D01*
X019032Y006136D01*
X019015Y006140D01*
X018998Y006142D01*
X018848Y006142D01*
X022199Y005854D02*
X022199Y007554D01*
X022201Y007571D01*
X022205Y007588D01*
X022212Y007604D01*
X022222Y007618D01*
X022235Y007631D01*
X022249Y007641D01*
X022265Y007648D01*
X022282Y007652D01*
X022299Y007654D01*
X023099Y007654D01*
X023116Y007652D01*
X023133Y007648D01*
X023149Y007641D01*
X023163Y007631D01*
X023176Y007618D01*
X023186Y007604D01*
X023193Y007588D01*
X023197Y007571D01*
X023199Y007554D01*
X023199Y005854D01*
X023197Y005837D01*
X023193Y005820D01*
X023186Y005804D01*
X023176Y005790D01*
X023163Y005777D01*
X023149Y005767D01*
X023133Y005760D01*
X023116Y005756D01*
X023099Y005754D01*
X022299Y005754D01*
X022282Y005756D01*
X022265Y005760D01*
X022249Y005767D01*
X022235Y005777D01*
X022222Y005790D01*
X022212Y005804D01*
X022205Y005820D01*
X022201Y005837D01*
X022199Y005854D01*
X022699Y006554D02*
X022699Y006604D01*
X022699Y006804D02*
X022699Y006854D01*
X024111Y006708D02*
X024261Y006708D01*
X024261Y006858D01*
X024261Y006708D02*
X024411Y006708D01*
X024261Y006708D02*
X024261Y006558D01*
X023811Y006208D02*
X023813Y006274D01*
X023819Y006339D01*
X023829Y006404D01*
X023842Y006469D01*
X023860Y006532D01*
X023881Y006595D01*
X023906Y006655D01*
X023935Y006715D01*
X023967Y006772D01*
X024002Y006828D01*
X024041Y006881D01*
X024083Y006932D01*
X024127Y006980D01*
X024175Y007025D01*
X024225Y007068D01*
X024278Y007107D01*
X024333Y007144D01*
X024390Y007177D01*
X024449Y007206D01*
X024509Y007232D01*
X024571Y007254D01*
X024634Y007273D01*
X024698Y007287D01*
X024763Y007298D01*
X024829Y007305D01*
X024895Y007308D01*
X024960Y007307D01*
X025026Y007302D01*
X025091Y007293D01*
X025156Y007280D01*
X025219Y007264D01*
X025282Y007244D01*
X025343Y007219D01*
X025403Y007192D01*
X025461Y007161D01*
X025517Y007126D01*
X025571Y007088D01*
X025622Y007047D01*
X025671Y007003D01*
X025717Y006956D01*
X025761Y006907D01*
X025801Y006855D01*
X025838Y006800D01*
X025872Y006744D01*
X025902Y006685D01*
X025929Y006625D01*
X025952Y006564D01*
X025971Y006501D01*
X025987Y006437D01*
X025999Y006372D01*
X026007Y006307D01*
X026011Y006241D01*
X026011Y006175D01*
X026007Y006109D01*
X025999Y006044D01*
X025987Y005979D01*
X025971Y005915D01*
X025952Y005852D01*
X025929Y005791D01*
X025902Y005731D01*
X025872Y005672D01*
X025838Y005616D01*
X025801Y005561D01*
X025761Y005509D01*
X025717Y005460D01*
X025671Y005413D01*
X025622Y005369D01*
X025571Y005328D01*
X025517Y005290D01*
X025461Y005255D01*
X025403Y005224D01*
X025343Y005197D01*
X025282Y005172D01*
X025219Y005152D01*
X025156Y005136D01*
X025091Y005123D01*
X025026Y005114D01*
X024960Y005109D01*
X024895Y005108D01*
X024829Y005111D01*
X024763Y005118D01*
X024698Y005129D01*
X024634Y005143D01*
X024571Y005162D01*
X024509Y005184D01*
X024449Y005210D01*
X024390Y005239D01*
X024333Y005272D01*
X024278Y005309D01*
X024225Y005348D01*
X024175Y005391D01*
X024127Y005436D01*
X024083Y005484D01*
X024041Y005535D01*
X024002Y005588D01*
X023967Y005644D01*
X023935Y005701D01*
X023906Y005761D01*
X023881Y005821D01*
X023860Y005884D01*
X023842Y005947D01*
X023829Y006012D01*
X023819Y006077D01*
X023813Y006142D01*
X023811Y006208D01*
X022966Y003786D02*
X023016Y002636D01*
X023116Y002496D01*
X026816Y002496D01*
X026916Y002636D01*
X026966Y003786D01*
X024522Y013546D02*
X016522Y013546D01*
X016522Y015846D01*
X024522Y015846D01*
X024522Y015096D01*
X024483Y015094D01*
X024444Y015088D01*
X024406Y015079D01*
X024369Y015066D01*
X024333Y015049D01*
X024300Y015029D01*
X024268Y015005D01*
X024239Y014979D01*
X024213Y014950D01*
X024189Y014918D01*
X024169Y014885D01*
X024152Y014849D01*
X024139Y014812D01*
X024130Y014774D01*
X024124Y014735D01*
X024122Y014696D01*
X024124Y014657D01*
X024130Y014618D01*
X024139Y014580D01*
X024152Y014543D01*
X024169Y014507D01*
X024189Y014474D01*
X024213Y014442D01*
X024239Y014413D01*
X024268Y014387D01*
X024300Y014363D01*
X024333Y014343D01*
X024369Y014326D01*
X024406Y014313D01*
X024444Y014304D01*
X024483Y014298D01*
X024522Y014296D01*
X024522Y013546D01*
X007364Y014401D02*
X007364Y006401D01*
X006614Y006401D01*
X006612Y006440D01*
X006606Y006479D01*
X006597Y006517D01*
X006584Y006554D01*
X006567Y006590D01*
X006547Y006623D01*
X006523Y006655D01*
X006497Y006684D01*
X006468Y006710D01*
X006436Y006734D01*
X006403Y006754D01*
X006367Y006771D01*
X006330Y006784D01*
X006292Y006793D01*
X006253Y006799D01*
X006214Y006801D01*
X006175Y006799D01*
X006136Y006793D01*
X006098Y006784D01*
X006061Y006771D01*
X006025Y006754D01*
X005992Y006734D01*
X005960Y006710D01*
X005931Y006684D01*
X005905Y006655D01*
X005881Y006623D01*
X005861Y006590D01*
X005844Y006554D01*
X005831Y006517D01*
X005822Y006479D01*
X005816Y006440D01*
X005814Y006401D01*
X005064Y006401D01*
X005064Y014401D01*
X007364Y014401D01*
X003020Y014473D02*
X003020Y006873D01*
X002970Y006823D02*
X002270Y006823D01*
X002270Y007523D01*
X002970Y007523D01*
X002970Y006823D01*
X003020Y006873D02*
X003018Y006847D01*
X003013Y006821D01*
X003005Y006796D01*
X002993Y006773D01*
X002979Y006751D01*
X002961Y006732D01*
X002942Y006714D01*
X002920Y006700D01*
X002897Y006688D01*
X002872Y006680D01*
X002846Y006675D01*
X002820Y006673D01*
X002420Y006673D01*
X002394Y006675D01*
X002368Y006680D01*
X002343Y006688D01*
X002320Y006700D01*
X002298Y006714D01*
X002279Y006732D01*
X002261Y006751D01*
X002247Y006773D01*
X002235Y006796D01*
X002227Y006821D01*
X002222Y006847D01*
X002220Y006873D01*
X002220Y014473D01*
X002222Y014499D01*
X002227Y014525D01*
X002235Y014550D01*
X002247Y014573D01*
X002261Y014595D01*
X002279Y014614D01*
X002298Y014632D01*
X002320Y014646D01*
X002343Y014658D01*
X002368Y014666D01*
X002394Y014671D01*
X002420Y014673D01*
X002820Y014673D01*
X002846Y014671D01*
X002872Y014666D01*
X002897Y014658D01*
X002920Y014646D01*
X002942Y014632D01*
X002961Y014614D01*
X002979Y014595D01*
X002993Y014573D01*
X003005Y014550D01*
X003013Y014525D01*
X003018Y014499D01*
X003020Y014473D01*
D17*
X010826Y024675D02*
X010904Y024720D01*
X010904Y024719D02*
X010932Y024675D01*
X010963Y024633D01*
X010996Y024593D01*
X011032Y024555D01*
X011071Y024520D01*
X011112Y024488D01*
X011156Y024458D01*
X011201Y024432D01*
X011248Y024409D01*
X011296Y024389D01*
X011346Y024373D01*
X011396Y024360D01*
X011448Y024351D01*
X011500Y024345D01*
X011552Y024343D01*
X011553Y024254D01*
X011552Y024253D01*
X011497Y024255D01*
X011443Y024261D01*
X011388Y024270D01*
X011335Y024283D01*
X011283Y024299D01*
X011231Y024318D01*
X011181Y024341D01*
X011133Y024367D01*
X011086Y024396D01*
X011042Y024428D01*
X010999Y024463D01*
X010959Y024501D01*
X010922Y024541D01*
X010887Y024583D01*
X010855Y024628D01*
X010826Y024674D01*
X010834Y024679D01*
X010862Y024633D01*
X010894Y024589D01*
X010929Y024547D01*
X010966Y024507D01*
X011005Y024470D01*
X011047Y024435D01*
X011091Y024404D01*
X011137Y024375D01*
X011185Y024349D01*
X011235Y024327D01*
X011285Y024307D01*
X011337Y024291D01*
X011390Y024279D01*
X011444Y024270D01*
X011498Y024264D01*
X011552Y024262D01*
X011552Y024271D01*
X011498Y024273D01*
X011445Y024279D01*
X011392Y024288D01*
X011340Y024300D01*
X011288Y024316D01*
X011238Y024335D01*
X011189Y024357D01*
X011142Y024383D01*
X011096Y024411D01*
X011053Y024443D01*
X011011Y024477D01*
X010972Y024513D01*
X010935Y024553D01*
X010901Y024594D01*
X010870Y024638D01*
X010841Y024683D01*
X010849Y024688D01*
X010879Y024640D01*
X010913Y024594D01*
X010949Y024551D01*
X010989Y024510D01*
X011031Y024472D01*
X011075Y024437D01*
X011122Y024405D01*
X011171Y024377D01*
X011222Y024352D01*
X011275Y024330D01*
X011328Y024313D01*
X011383Y024299D01*
X011439Y024289D01*
X011495Y024282D01*
X011552Y024280D01*
X011552Y024289D01*
X011496Y024291D01*
X011440Y024297D01*
X011385Y024307D01*
X011331Y024321D01*
X011278Y024339D01*
X011226Y024360D01*
X011175Y024385D01*
X011127Y024413D01*
X011081Y024444D01*
X011036Y024479D01*
X010995Y024516D01*
X010956Y024557D01*
X010920Y024599D01*
X010887Y024645D01*
X010857Y024692D01*
X010865Y024697D01*
X010894Y024650D01*
X010927Y024605D01*
X010963Y024563D01*
X011001Y024523D01*
X011042Y024486D01*
X011086Y024451D01*
X011132Y024420D01*
X011180Y024393D01*
X011229Y024368D01*
X011281Y024347D01*
X011333Y024330D01*
X011387Y024316D01*
X011442Y024306D01*
X011497Y024300D01*
X011552Y024298D01*
X011552Y024307D01*
X011497Y024309D01*
X011443Y024315D01*
X011389Y024325D01*
X011336Y024339D01*
X011284Y024356D01*
X011233Y024376D01*
X011184Y024401D01*
X011137Y024428D01*
X011091Y024459D01*
X011048Y024492D01*
X011007Y024529D01*
X010969Y024569D01*
X010934Y024611D01*
X010902Y024655D01*
X010873Y024701D01*
X010881Y024706D01*
X010909Y024660D01*
X010941Y024616D01*
X010976Y024575D01*
X011014Y024536D01*
X011054Y024499D01*
X011096Y024466D01*
X011141Y024436D01*
X011188Y024408D01*
X011237Y024385D01*
X011287Y024364D01*
X011338Y024347D01*
X011391Y024334D01*
X011444Y024324D01*
X011498Y024318D01*
X011552Y024316D01*
X011552Y024325D01*
X011499Y024327D01*
X011445Y024333D01*
X011393Y024343D01*
X011341Y024356D01*
X011290Y024373D01*
X011240Y024393D01*
X011192Y024416D01*
X011146Y024443D01*
X011102Y024473D01*
X011060Y024506D01*
X011020Y024542D01*
X010983Y024581D01*
X010948Y024622D01*
X010917Y024665D01*
X010888Y024710D01*
X010896Y024715D01*
X010924Y024670D01*
X010955Y024627D01*
X010989Y024587D01*
X011026Y024549D01*
X011065Y024513D01*
X011107Y024481D01*
X011151Y024451D01*
X011197Y024424D01*
X011244Y024401D01*
X011293Y024381D01*
X011343Y024364D01*
X011395Y024351D01*
X011447Y024342D01*
X011499Y024336D01*
X011552Y024334D01*
X011561Y024254D02*
X011561Y024344D01*
X011562Y024343D02*
X011616Y024345D01*
X011669Y024351D01*
X011722Y024361D01*
X011774Y024375D01*
X011825Y024392D01*
X011875Y024413D01*
X011923Y024437D01*
X011969Y024465D01*
X012013Y024496D01*
X012054Y024530D01*
X012094Y024567D01*
X012130Y024606D01*
X012198Y024549D01*
X012199Y024548D01*
X012161Y024507D01*
X012121Y024469D01*
X012078Y024433D01*
X012033Y024400D01*
X011986Y024370D01*
X011938Y024344D01*
X011887Y024320D01*
X011835Y024300D01*
X011782Y024284D01*
X011728Y024270D01*
X011673Y024261D01*
X011618Y024255D01*
X011562Y024253D01*
X011562Y024262D01*
X011617Y024264D01*
X011672Y024270D01*
X011726Y024279D01*
X011780Y024292D01*
X011832Y024309D01*
X011884Y024328D01*
X011934Y024352D01*
X011982Y024378D01*
X012028Y024408D01*
X012073Y024440D01*
X012115Y024475D01*
X012155Y024514D01*
X012192Y024554D01*
X012185Y024560D01*
X012148Y024520D01*
X012109Y024482D01*
X012067Y024447D01*
X012023Y024415D01*
X011977Y024386D01*
X011929Y024360D01*
X011880Y024337D01*
X011829Y024317D01*
X011777Y024301D01*
X011724Y024288D01*
X011671Y024279D01*
X011616Y024273D01*
X011562Y024271D01*
X011562Y024280D01*
X011616Y024282D01*
X011669Y024288D01*
X011722Y024297D01*
X011775Y024310D01*
X011826Y024326D01*
X011877Y024345D01*
X011925Y024368D01*
X011973Y024393D01*
X012018Y024422D01*
X012062Y024454D01*
X012103Y024489D01*
X012142Y024526D01*
X012178Y024566D01*
X012171Y024572D01*
X012135Y024532D01*
X012097Y024495D01*
X012056Y024461D01*
X012013Y024430D01*
X011968Y024401D01*
X011921Y024376D01*
X011873Y024353D01*
X011823Y024334D01*
X011772Y024318D01*
X011721Y024306D01*
X011668Y024297D01*
X011615Y024291D01*
X011562Y024289D01*
X011562Y024298D01*
X011615Y024300D01*
X011667Y024306D01*
X011719Y024315D01*
X011770Y024327D01*
X011820Y024343D01*
X011870Y024362D01*
X011917Y024384D01*
X011964Y024409D01*
X012008Y024437D01*
X012050Y024468D01*
X012091Y024502D01*
X012129Y024539D01*
X012164Y024577D01*
X012158Y024583D01*
X012122Y024545D01*
X012085Y024509D01*
X012045Y024475D01*
X012003Y024445D01*
X011959Y024417D01*
X011913Y024392D01*
X011866Y024370D01*
X011817Y024351D01*
X011768Y024336D01*
X011717Y024323D01*
X011666Y024315D01*
X011614Y024309D01*
X011562Y024307D01*
X011562Y024316D01*
X011618Y024318D01*
X011673Y024325D01*
X011728Y024335D01*
X011782Y024349D01*
X011835Y024367D01*
X011886Y024389D01*
X011936Y024414D01*
X011984Y024443D01*
X012029Y024475D01*
X012072Y024510D01*
X012113Y024548D01*
X012151Y024589D01*
X012144Y024595D01*
X012107Y024554D01*
X012066Y024517D01*
X012024Y024482D01*
X011979Y024450D01*
X011931Y024422D01*
X011882Y024397D01*
X011831Y024375D01*
X011779Y024358D01*
X011726Y024344D01*
X011672Y024334D01*
X011617Y024327D01*
X011562Y024325D01*
X011562Y024334D01*
X011616Y024336D01*
X011671Y024342D01*
X011724Y024352D01*
X011777Y024366D01*
X011828Y024384D01*
X011878Y024405D01*
X011927Y024430D01*
X011974Y024458D01*
X012018Y024489D01*
X012060Y024523D01*
X012100Y024561D01*
X012137Y024601D01*
X011552Y025942D02*
X011552Y025852D01*
X011552Y025853D02*
X011498Y025851D01*
X011445Y025845D01*
X011392Y025835D01*
X011340Y025821D01*
X011289Y025804D01*
X011240Y025783D01*
X011192Y025759D01*
X011146Y025731D01*
X011102Y025700D01*
X011060Y025666D01*
X011021Y025630D01*
X010984Y025590D01*
X010951Y025548D01*
X010920Y025504D01*
X010893Y025458D01*
X010814Y025500D01*
X010842Y025549D01*
X010874Y025595D01*
X010909Y025640D01*
X010946Y025682D01*
X010987Y025721D01*
X011030Y025758D01*
X011075Y025792D01*
X011122Y025823D01*
X011172Y025850D01*
X011223Y025874D01*
X011275Y025895D01*
X011329Y025912D01*
X011384Y025925D01*
X011439Y025935D01*
X011496Y025941D01*
X011552Y025943D01*
X011552Y025934D01*
X011496Y025932D01*
X011441Y025926D01*
X011386Y025916D01*
X011331Y025903D01*
X011278Y025886D01*
X011226Y025866D01*
X011176Y025842D01*
X011127Y025815D01*
X011080Y025785D01*
X011035Y025751D01*
X010993Y025715D01*
X010953Y025676D01*
X010916Y025634D01*
X010881Y025590D01*
X010850Y025544D01*
X010822Y025496D01*
X010830Y025492D01*
X010858Y025539D01*
X010889Y025585D01*
X010923Y025628D01*
X010959Y025670D01*
X010999Y025708D01*
X011041Y025744D01*
X011085Y025777D01*
X011131Y025807D01*
X011180Y025834D01*
X011230Y025857D01*
X011281Y025878D01*
X011334Y025894D01*
X011387Y025907D01*
X011442Y025917D01*
X011497Y025923D01*
X011552Y025925D01*
X011552Y025916D01*
X011497Y025914D01*
X011443Y025908D01*
X011389Y025899D01*
X011336Y025886D01*
X011284Y025869D01*
X011233Y025849D01*
X011184Y025826D01*
X011136Y025799D01*
X011090Y025770D01*
X011046Y025737D01*
X011005Y025702D01*
X010966Y025663D01*
X010929Y025623D01*
X010896Y025580D01*
X010865Y025534D01*
X010838Y025487D01*
X010846Y025483D01*
X010873Y025530D01*
X010903Y025574D01*
X010936Y025617D01*
X010972Y025657D01*
X011011Y025695D01*
X011052Y025730D01*
X011095Y025762D01*
X011141Y025792D01*
X011188Y025818D01*
X011237Y025841D01*
X011287Y025861D01*
X011339Y025877D01*
X011391Y025890D01*
X011444Y025899D01*
X011498Y025905D01*
X011552Y025907D01*
X011552Y025898D01*
X011499Y025896D01*
X011445Y025890D01*
X011393Y025881D01*
X011341Y025868D01*
X011290Y025852D01*
X011240Y025833D01*
X011192Y025810D01*
X011145Y025784D01*
X011101Y025755D01*
X011058Y025723D01*
X011017Y025688D01*
X010979Y025651D01*
X010943Y025611D01*
X010910Y025569D01*
X010880Y025525D01*
X010853Y025479D01*
X010861Y025475D01*
X010888Y025520D01*
X010918Y025564D01*
X010950Y025605D01*
X010985Y025645D01*
X011023Y025682D01*
X011063Y025716D01*
X011106Y025748D01*
X011150Y025776D01*
X011196Y025802D01*
X011244Y025824D01*
X011293Y025844D01*
X011343Y025860D01*
X011395Y025872D01*
X011447Y025881D01*
X011499Y025887D01*
X011552Y025889D01*
X011552Y025880D01*
X011496Y025878D01*
X011441Y025871D01*
X011386Y025861D01*
X011332Y025847D01*
X011280Y025829D01*
X011228Y025808D01*
X011179Y025782D01*
X011131Y025754D01*
X011085Y025722D01*
X011042Y025687D01*
X011002Y025649D01*
X010964Y025608D01*
X010929Y025564D01*
X010898Y025518D01*
X010869Y025470D01*
X010877Y025466D01*
X010905Y025514D01*
X010936Y025559D01*
X010971Y025602D01*
X011008Y025642D01*
X011048Y025680D01*
X011091Y025715D01*
X011136Y025746D01*
X011183Y025775D01*
X011232Y025799D01*
X011283Y025821D01*
X011335Y025838D01*
X011388Y025852D01*
X011442Y025862D01*
X011497Y025869D01*
X011552Y025871D01*
X011552Y025862D01*
X011498Y025860D01*
X011444Y025854D01*
X011390Y025844D01*
X011338Y025830D01*
X011286Y025812D01*
X011236Y025791D01*
X011187Y025767D01*
X011141Y025739D01*
X011096Y025707D01*
X011054Y025673D01*
X011015Y025636D01*
X010978Y025596D01*
X010944Y025554D01*
X010913Y025509D01*
X010885Y025462D01*
X012202Y025642D02*
X012133Y025585D01*
X012134Y025585D02*
X012097Y025625D01*
X012058Y025663D01*
X012016Y025697D01*
X011972Y025729D01*
X011926Y025757D01*
X011877Y025782D01*
X011827Y025803D01*
X011776Y025821D01*
X011723Y025834D01*
X011670Y025844D01*
X011616Y025851D01*
X011562Y025853D01*
X011561Y025942D01*
X011562Y025943D01*
X011618Y025941D01*
X011674Y025935D01*
X011729Y025925D01*
X011784Y025912D01*
X011837Y025895D01*
X011890Y025875D01*
X011941Y025851D01*
X011990Y025824D01*
X012037Y025793D01*
X012082Y025760D01*
X012125Y025724D01*
X012165Y025685D01*
X012203Y025643D01*
X012196Y025637D01*
X012159Y025678D01*
X012119Y025717D01*
X012077Y025753D01*
X012032Y025786D01*
X011985Y025816D01*
X011937Y025843D01*
X011886Y025866D01*
X011834Y025887D01*
X011781Y025903D01*
X011727Y025916D01*
X011673Y025926D01*
X011618Y025932D01*
X011562Y025934D01*
X011562Y025925D01*
X011617Y025923D01*
X011672Y025917D01*
X011726Y025908D01*
X011779Y025895D01*
X011831Y025878D01*
X011883Y025858D01*
X011932Y025835D01*
X011981Y025808D01*
X012027Y025779D01*
X012071Y025746D01*
X012113Y025710D01*
X012152Y025672D01*
X012189Y025631D01*
X012182Y025626D01*
X012146Y025666D01*
X012107Y025704D01*
X012065Y025739D01*
X012022Y025771D01*
X011976Y025801D01*
X011928Y025827D01*
X011879Y025850D01*
X011829Y025870D01*
X011777Y025886D01*
X011724Y025899D01*
X011670Y025908D01*
X011616Y025914D01*
X011562Y025916D01*
X011562Y025907D01*
X011616Y025905D01*
X011669Y025899D01*
X011722Y025890D01*
X011774Y025877D01*
X011826Y025861D01*
X011876Y025842D01*
X011924Y025819D01*
X011971Y025793D01*
X012017Y025764D01*
X012060Y025732D01*
X012101Y025697D01*
X012139Y025660D01*
X012175Y025620D01*
X012168Y025614D01*
X012133Y025653D01*
X012095Y025690D01*
X012054Y025725D01*
X012011Y025756D01*
X011967Y025785D01*
X011920Y025811D01*
X011872Y025833D01*
X011823Y025853D01*
X011772Y025869D01*
X011720Y025881D01*
X011668Y025890D01*
X011615Y025896D01*
X011562Y025898D01*
X011562Y025889D01*
X011614Y025887D01*
X011667Y025881D01*
X011718Y025872D01*
X011769Y025860D01*
X011820Y025844D01*
X011869Y025825D01*
X011916Y025803D01*
X011962Y025777D01*
X012006Y025749D01*
X012048Y025718D01*
X012089Y025684D01*
X012126Y025647D01*
X012161Y025608D01*
X012155Y025602D01*
X012120Y025641D01*
X012082Y025677D01*
X012043Y025711D01*
X012001Y025742D01*
X011957Y025770D01*
X011912Y025795D01*
X011865Y025817D01*
X011817Y025836D01*
X011767Y025851D01*
X011717Y025864D01*
X011666Y025872D01*
X011614Y025878D01*
X011562Y025880D01*
X011562Y025871D01*
X011613Y025869D01*
X011664Y025864D01*
X011715Y025855D01*
X011765Y025843D01*
X011814Y025827D01*
X011861Y025809D01*
X011908Y025787D01*
X011953Y025762D01*
X011996Y025734D01*
X012037Y025704D01*
X012076Y025671D01*
X012113Y025635D01*
X012148Y025597D01*
X012141Y025591D01*
X012104Y025632D01*
X012064Y025670D01*
X012022Y025704D01*
X011977Y025736D01*
X011930Y025765D01*
X011881Y025790D01*
X011830Y025811D01*
X011779Y025829D01*
X011725Y025843D01*
X011671Y025853D01*
X011617Y025860D01*
X011562Y025862D01*
X011067Y024711D02*
X011107Y024742D01*
X011106Y024741D02*
X011137Y024706D01*
X011170Y024673D01*
X011205Y024643D01*
X011244Y024616D01*
X011284Y024592D01*
X011326Y024572D01*
X011369Y024555D01*
X011414Y024541D01*
X011459Y024531D01*
X011505Y024525D01*
X011552Y024523D01*
X011553Y024474D01*
X011552Y024473D01*
X011506Y024475D01*
X011459Y024481D01*
X011414Y024490D01*
X011369Y024502D01*
X011325Y024518D01*
X011282Y024537D01*
X011241Y024559D01*
X011202Y024584D01*
X011165Y024611D01*
X011130Y024642D01*
X011097Y024675D01*
X011067Y024710D01*
X011074Y024716D01*
X011104Y024681D01*
X011136Y024648D01*
X011170Y024618D01*
X011207Y024591D01*
X011246Y024566D01*
X011286Y024545D01*
X011328Y024526D01*
X011371Y024511D01*
X011416Y024498D01*
X011461Y024490D01*
X011506Y024484D01*
X011552Y024482D01*
X011552Y024491D01*
X011507Y024493D01*
X011462Y024498D01*
X011418Y024507D01*
X011374Y024519D01*
X011332Y024534D01*
X011290Y024553D01*
X011250Y024574D01*
X011212Y024598D01*
X011176Y024625D01*
X011142Y024655D01*
X011110Y024687D01*
X011081Y024721D01*
X011088Y024727D01*
X011120Y024690D01*
X011154Y024656D01*
X011191Y024625D01*
X011231Y024597D01*
X011273Y024572D01*
X011316Y024551D01*
X011361Y024533D01*
X011408Y024519D01*
X011455Y024509D01*
X011504Y024502D01*
X011552Y024500D01*
X011552Y024509D01*
X011504Y024511D01*
X011457Y024518D01*
X011410Y024528D01*
X011364Y024541D01*
X011320Y024559D01*
X011277Y024580D01*
X011236Y024604D01*
X011197Y024632D01*
X011160Y024663D01*
X011126Y024696D01*
X011095Y024732D01*
X011102Y024738D01*
X011133Y024702D01*
X011166Y024669D01*
X011202Y024639D01*
X011241Y024612D01*
X011281Y024588D01*
X011324Y024567D01*
X011367Y024550D01*
X011412Y024536D01*
X011458Y024526D01*
X011505Y024520D01*
X011552Y024518D01*
X011561Y024474D02*
X011561Y024524D01*
X011562Y024523D02*
X011609Y024525D01*
X011655Y024531D01*
X011700Y024541D01*
X011745Y024555D01*
X011788Y024572D01*
X011830Y024592D01*
X011870Y024616D01*
X011909Y024643D01*
X011944Y024673D01*
X011977Y024706D01*
X012008Y024741D01*
X012047Y024711D01*
X012047Y024710D01*
X012017Y024675D01*
X011984Y024642D01*
X011949Y024611D01*
X011912Y024584D01*
X011873Y024559D01*
X011832Y024537D01*
X011789Y024518D01*
X011745Y024502D01*
X011700Y024490D01*
X011655Y024481D01*
X011608Y024475D01*
X011562Y024473D01*
X011562Y024482D01*
X011608Y024484D01*
X011653Y024490D01*
X011698Y024498D01*
X011743Y024511D01*
X011786Y024526D01*
X011828Y024545D01*
X011868Y024566D01*
X011907Y024591D01*
X011944Y024618D01*
X011978Y024648D01*
X012010Y024681D01*
X012040Y024716D01*
X012033Y024721D01*
X012004Y024687D01*
X011972Y024655D01*
X011938Y024625D01*
X011902Y024598D01*
X011864Y024574D01*
X011824Y024553D01*
X011782Y024534D01*
X011740Y024519D01*
X011696Y024507D01*
X011652Y024498D01*
X011607Y024493D01*
X011562Y024491D01*
X011562Y024500D01*
X011610Y024502D01*
X011659Y024509D01*
X011706Y024519D01*
X011753Y024533D01*
X011798Y024551D01*
X011841Y024572D01*
X011883Y024597D01*
X011923Y024625D01*
X011960Y024656D01*
X011994Y024690D01*
X012026Y024727D01*
X012019Y024732D01*
X011988Y024696D01*
X011954Y024663D01*
X011917Y024632D01*
X011878Y024604D01*
X011837Y024580D01*
X011794Y024559D01*
X011750Y024541D01*
X011704Y024528D01*
X011657Y024518D01*
X011610Y024511D01*
X011562Y024509D01*
X011562Y024518D01*
X011609Y024520D01*
X011656Y024526D01*
X011702Y024536D01*
X011747Y024550D01*
X011790Y024567D01*
X011833Y024588D01*
X011873Y024612D01*
X011912Y024639D01*
X011948Y024669D01*
X011981Y024702D01*
X012012Y024738D01*
X011553Y025722D02*
X011553Y025672D01*
X011552Y025673D02*
X011508Y025671D01*
X011465Y025666D01*
X011422Y025657D01*
X011380Y025645D01*
X011340Y025630D01*
X011300Y025612D01*
X011262Y025591D01*
X011225Y025568D01*
X011190Y025541D01*
X011158Y025512D01*
X011128Y025481D01*
X011100Y025447D01*
X011061Y025476D01*
X011060Y025477D01*
X011090Y025514D01*
X011123Y025548D01*
X011158Y025579D01*
X011196Y025608D01*
X011236Y025634D01*
X011277Y025657D01*
X011321Y025677D01*
X011365Y025693D01*
X011411Y025706D01*
X011457Y025715D01*
X011505Y025721D01*
X011552Y025723D01*
X011552Y025714D01*
X011505Y025712D01*
X011459Y025706D01*
X011413Y025697D01*
X011368Y025684D01*
X011324Y025668D01*
X011282Y025649D01*
X011241Y025626D01*
X011201Y025601D01*
X011164Y025573D01*
X011129Y025541D01*
X011097Y025508D01*
X011067Y025472D01*
X011074Y025466D01*
X011104Y025502D01*
X011136Y025535D01*
X011170Y025566D01*
X011207Y025594D01*
X011245Y025619D01*
X011286Y025641D01*
X011327Y025660D01*
X011371Y025676D01*
X011415Y025688D01*
X011460Y025697D01*
X011506Y025703D01*
X011552Y025705D01*
X011552Y025696D01*
X011507Y025694D01*
X011462Y025688D01*
X011417Y025679D01*
X011374Y025667D01*
X011331Y025652D01*
X011290Y025633D01*
X011250Y025611D01*
X011212Y025586D01*
X011176Y025559D01*
X011142Y025528D01*
X011110Y025496D01*
X011082Y025461D01*
X011089Y025455D01*
X011117Y025490D01*
X011148Y025522D01*
X011182Y025552D01*
X011217Y025579D01*
X011254Y025603D01*
X011294Y025625D01*
X011334Y025643D01*
X011376Y025659D01*
X011419Y025671D01*
X011463Y025679D01*
X011507Y025685D01*
X011552Y025687D01*
X011552Y025678D01*
X011508Y025676D01*
X011464Y025671D01*
X011421Y025662D01*
X011379Y025650D01*
X011338Y025635D01*
X011298Y025617D01*
X011259Y025596D01*
X011222Y025572D01*
X011187Y025545D01*
X011154Y025516D01*
X011124Y025484D01*
X011096Y025450D01*
X012062Y025465D02*
X012021Y025436D01*
X012022Y025436D02*
X011994Y025471D01*
X011964Y025504D01*
X011931Y025535D01*
X011896Y025562D01*
X011859Y025587D01*
X011820Y025609D01*
X011780Y025628D01*
X011738Y025644D01*
X011695Y025656D01*
X011651Y025665D01*
X011607Y025671D01*
X011562Y025673D01*
X011561Y025722D01*
X011562Y025723D01*
X011611Y025721D01*
X011659Y025715D01*
X011707Y025705D01*
X011753Y025691D01*
X011799Y025674D01*
X011843Y025654D01*
X011885Y025630D01*
X011926Y025603D01*
X011964Y025572D01*
X012000Y025539D01*
X012033Y025504D01*
X012063Y025465D01*
X012055Y025460D01*
X012026Y025498D01*
X011993Y025533D01*
X011958Y025566D01*
X011920Y025595D01*
X011881Y025622D01*
X011839Y025646D01*
X011795Y025666D01*
X011751Y025683D01*
X011704Y025696D01*
X011657Y025706D01*
X011610Y025712D01*
X011562Y025714D01*
X011562Y025705D01*
X011609Y025703D01*
X011656Y025697D01*
X011702Y025687D01*
X011748Y025674D01*
X011792Y025658D01*
X011835Y025638D01*
X011876Y025614D01*
X011915Y025588D01*
X011952Y025559D01*
X011987Y025527D01*
X012019Y025492D01*
X012048Y025455D01*
X012041Y025450D01*
X012012Y025486D01*
X011980Y025520D01*
X011946Y025552D01*
X011910Y025581D01*
X011871Y025607D01*
X011831Y025630D01*
X011788Y025649D01*
X011745Y025666D01*
X011700Y025679D01*
X011655Y025688D01*
X011608Y025694D01*
X011562Y025696D01*
X011562Y025687D01*
X011608Y025685D01*
X011653Y025679D01*
X011698Y025670D01*
X011742Y025657D01*
X011785Y025641D01*
X011827Y025622D01*
X011866Y025599D01*
X011904Y025574D01*
X011940Y025545D01*
X011974Y025514D01*
X012005Y025480D01*
X012033Y025444D01*
X012026Y025439D01*
X011998Y025475D01*
X011968Y025508D01*
X011934Y025538D01*
X011899Y025566D01*
X011862Y025592D01*
X011822Y025614D01*
X011782Y025633D01*
X011739Y025649D01*
X011696Y025661D01*
X011652Y025670D01*
X011607Y025676D01*
X011562Y025678D01*
X020141Y003411D02*
X020219Y003456D01*
X020219Y003455D02*
X020247Y003411D01*
X020278Y003369D01*
X020311Y003329D01*
X020347Y003291D01*
X020386Y003256D01*
X020427Y003224D01*
X020471Y003194D01*
X020516Y003168D01*
X020563Y003145D01*
X020611Y003125D01*
X020661Y003109D01*
X020711Y003096D01*
X020763Y003087D01*
X020815Y003081D01*
X020867Y003079D01*
X020868Y002990D01*
X020867Y002989D01*
X020812Y002991D01*
X020758Y002997D01*
X020703Y003006D01*
X020650Y003019D01*
X020598Y003035D01*
X020546Y003054D01*
X020496Y003077D01*
X020448Y003103D01*
X020401Y003132D01*
X020357Y003164D01*
X020314Y003199D01*
X020274Y003237D01*
X020237Y003277D01*
X020202Y003319D01*
X020170Y003364D01*
X020141Y003410D01*
X020149Y003415D01*
X020177Y003369D01*
X020209Y003325D01*
X020244Y003283D01*
X020281Y003243D01*
X020320Y003206D01*
X020362Y003171D01*
X020406Y003140D01*
X020452Y003111D01*
X020500Y003085D01*
X020550Y003063D01*
X020600Y003043D01*
X020652Y003027D01*
X020705Y003015D01*
X020759Y003006D01*
X020813Y003000D01*
X020867Y002998D01*
X020867Y003007D01*
X020813Y003009D01*
X020760Y003015D01*
X020707Y003024D01*
X020655Y003036D01*
X020603Y003052D01*
X020553Y003071D01*
X020504Y003093D01*
X020457Y003119D01*
X020411Y003147D01*
X020368Y003179D01*
X020326Y003213D01*
X020287Y003249D01*
X020250Y003289D01*
X020216Y003330D01*
X020185Y003374D01*
X020156Y003419D01*
X020164Y003424D01*
X020194Y003376D01*
X020228Y003330D01*
X020264Y003287D01*
X020304Y003246D01*
X020346Y003208D01*
X020390Y003173D01*
X020437Y003141D01*
X020486Y003113D01*
X020537Y003088D01*
X020590Y003066D01*
X020643Y003049D01*
X020698Y003035D01*
X020754Y003025D01*
X020810Y003018D01*
X020867Y003016D01*
X020867Y003025D01*
X020811Y003027D01*
X020755Y003033D01*
X020700Y003043D01*
X020646Y003057D01*
X020593Y003075D01*
X020541Y003096D01*
X020490Y003121D01*
X020442Y003149D01*
X020396Y003180D01*
X020351Y003215D01*
X020310Y003252D01*
X020271Y003293D01*
X020235Y003335D01*
X020202Y003381D01*
X020172Y003428D01*
X020180Y003433D01*
X020209Y003386D01*
X020242Y003341D01*
X020278Y003299D01*
X020316Y003259D01*
X020357Y003222D01*
X020401Y003187D01*
X020447Y003156D01*
X020495Y003129D01*
X020544Y003104D01*
X020596Y003083D01*
X020648Y003066D01*
X020702Y003052D01*
X020757Y003042D01*
X020812Y003036D01*
X020867Y003034D01*
X020867Y003043D01*
X020812Y003045D01*
X020758Y003051D01*
X020704Y003061D01*
X020651Y003075D01*
X020599Y003092D01*
X020548Y003112D01*
X020499Y003137D01*
X020452Y003164D01*
X020406Y003195D01*
X020363Y003228D01*
X020322Y003265D01*
X020284Y003305D01*
X020249Y003347D01*
X020217Y003391D01*
X020188Y003437D01*
X020196Y003442D01*
X020224Y003396D01*
X020256Y003352D01*
X020291Y003311D01*
X020329Y003272D01*
X020369Y003235D01*
X020411Y003202D01*
X020456Y003172D01*
X020503Y003144D01*
X020552Y003121D01*
X020602Y003100D01*
X020653Y003083D01*
X020706Y003070D01*
X020759Y003060D01*
X020813Y003054D01*
X020867Y003052D01*
X020867Y003061D01*
X020814Y003063D01*
X020760Y003069D01*
X020708Y003079D01*
X020656Y003092D01*
X020605Y003109D01*
X020555Y003129D01*
X020507Y003152D01*
X020461Y003179D01*
X020417Y003209D01*
X020375Y003242D01*
X020335Y003278D01*
X020298Y003317D01*
X020263Y003358D01*
X020232Y003401D01*
X020203Y003446D01*
X020211Y003451D01*
X020239Y003406D01*
X020270Y003363D01*
X020304Y003323D01*
X020341Y003285D01*
X020380Y003249D01*
X020422Y003217D01*
X020466Y003187D01*
X020512Y003160D01*
X020559Y003137D01*
X020608Y003117D01*
X020658Y003100D01*
X020710Y003087D01*
X020762Y003078D01*
X020814Y003072D01*
X020867Y003070D01*
X020876Y002990D02*
X020876Y003080D01*
X020877Y003079D02*
X020931Y003081D01*
X020984Y003087D01*
X021037Y003097D01*
X021089Y003111D01*
X021140Y003128D01*
X021190Y003149D01*
X021238Y003173D01*
X021284Y003201D01*
X021328Y003232D01*
X021369Y003266D01*
X021409Y003303D01*
X021445Y003342D01*
X021513Y003285D01*
X021514Y003284D01*
X021476Y003243D01*
X021436Y003205D01*
X021393Y003169D01*
X021348Y003136D01*
X021301Y003106D01*
X021253Y003080D01*
X021202Y003056D01*
X021150Y003036D01*
X021097Y003020D01*
X021043Y003006D01*
X020988Y002997D01*
X020933Y002991D01*
X020877Y002989D01*
X020877Y002998D01*
X020932Y003000D01*
X020987Y003006D01*
X021041Y003015D01*
X021095Y003028D01*
X021147Y003045D01*
X021199Y003064D01*
X021249Y003088D01*
X021297Y003114D01*
X021343Y003144D01*
X021388Y003176D01*
X021430Y003211D01*
X021470Y003250D01*
X021507Y003290D01*
X021500Y003296D01*
X021463Y003256D01*
X021424Y003218D01*
X021382Y003183D01*
X021338Y003151D01*
X021292Y003122D01*
X021244Y003096D01*
X021195Y003073D01*
X021144Y003053D01*
X021092Y003037D01*
X021039Y003024D01*
X020986Y003015D01*
X020931Y003009D01*
X020877Y003007D01*
X020877Y003016D01*
X020931Y003018D01*
X020984Y003024D01*
X021037Y003033D01*
X021090Y003046D01*
X021141Y003062D01*
X021192Y003081D01*
X021240Y003104D01*
X021288Y003129D01*
X021333Y003158D01*
X021377Y003190D01*
X021418Y003225D01*
X021457Y003262D01*
X021493Y003302D01*
X021486Y003308D01*
X021450Y003268D01*
X021412Y003231D01*
X021371Y003197D01*
X021328Y003166D01*
X021283Y003137D01*
X021236Y003112D01*
X021188Y003089D01*
X021138Y003070D01*
X021087Y003054D01*
X021036Y003042D01*
X020983Y003033D01*
X020930Y003027D01*
X020877Y003025D01*
X020877Y003034D01*
X020930Y003036D01*
X020982Y003042D01*
X021034Y003051D01*
X021085Y003063D01*
X021135Y003079D01*
X021185Y003098D01*
X021232Y003120D01*
X021279Y003145D01*
X021323Y003173D01*
X021365Y003204D01*
X021406Y003238D01*
X021444Y003275D01*
X021479Y003313D01*
X021473Y003319D01*
X021437Y003281D01*
X021400Y003245D01*
X021360Y003211D01*
X021318Y003181D01*
X021274Y003153D01*
X021228Y003128D01*
X021181Y003106D01*
X021132Y003087D01*
X021083Y003072D01*
X021032Y003059D01*
X020981Y003051D01*
X020929Y003045D01*
X020877Y003043D01*
X020877Y003052D01*
X020933Y003054D01*
X020988Y003061D01*
X021043Y003071D01*
X021097Y003085D01*
X021150Y003103D01*
X021201Y003125D01*
X021251Y003150D01*
X021299Y003179D01*
X021344Y003211D01*
X021387Y003246D01*
X021428Y003284D01*
X021466Y003325D01*
X021459Y003331D01*
X021422Y003290D01*
X021381Y003253D01*
X021339Y003218D01*
X021294Y003186D01*
X021246Y003158D01*
X021197Y003133D01*
X021146Y003111D01*
X021094Y003094D01*
X021041Y003080D01*
X020987Y003070D01*
X020932Y003063D01*
X020877Y003061D01*
X020877Y003070D01*
X020931Y003072D01*
X020986Y003078D01*
X021039Y003088D01*
X021092Y003102D01*
X021143Y003120D01*
X021193Y003141D01*
X021242Y003166D01*
X021289Y003194D01*
X021333Y003225D01*
X021375Y003259D01*
X021415Y003297D01*
X021452Y003337D01*
X020867Y004678D02*
X020867Y004588D01*
X020867Y004589D02*
X020813Y004587D01*
X020760Y004581D01*
X020707Y004571D01*
X020655Y004557D01*
X020604Y004540D01*
X020555Y004519D01*
X020507Y004495D01*
X020461Y004467D01*
X020417Y004436D01*
X020375Y004402D01*
X020336Y004366D01*
X020299Y004326D01*
X020266Y004284D01*
X020235Y004240D01*
X020208Y004194D01*
X020129Y004236D01*
X020157Y004285D01*
X020189Y004331D01*
X020224Y004376D01*
X020261Y004418D01*
X020302Y004457D01*
X020345Y004494D01*
X020390Y004528D01*
X020437Y004559D01*
X020487Y004586D01*
X020538Y004610D01*
X020590Y004631D01*
X020644Y004648D01*
X020699Y004661D01*
X020754Y004671D01*
X020811Y004677D01*
X020867Y004679D01*
X020867Y004670D01*
X020811Y004668D01*
X020756Y004662D01*
X020701Y004652D01*
X020646Y004639D01*
X020593Y004622D01*
X020541Y004602D01*
X020491Y004578D01*
X020442Y004551D01*
X020395Y004521D01*
X020350Y004487D01*
X020308Y004451D01*
X020268Y004412D01*
X020231Y004370D01*
X020196Y004326D01*
X020165Y004280D01*
X020137Y004232D01*
X020145Y004228D01*
X020173Y004275D01*
X020204Y004321D01*
X020238Y004364D01*
X020274Y004406D01*
X020314Y004444D01*
X020356Y004480D01*
X020400Y004513D01*
X020446Y004543D01*
X020495Y004570D01*
X020545Y004593D01*
X020596Y004614D01*
X020649Y004630D01*
X020702Y004643D01*
X020757Y004653D01*
X020812Y004659D01*
X020867Y004661D01*
X020867Y004652D01*
X020812Y004650D01*
X020758Y004644D01*
X020704Y004635D01*
X020651Y004622D01*
X020599Y004605D01*
X020548Y004585D01*
X020499Y004562D01*
X020451Y004535D01*
X020405Y004506D01*
X020361Y004473D01*
X020320Y004438D01*
X020281Y004399D01*
X020244Y004359D01*
X020211Y004316D01*
X020180Y004270D01*
X020153Y004223D01*
X020161Y004219D01*
X020188Y004266D01*
X020218Y004310D01*
X020251Y004353D01*
X020287Y004393D01*
X020326Y004431D01*
X020367Y004466D01*
X020410Y004498D01*
X020456Y004528D01*
X020503Y004554D01*
X020552Y004577D01*
X020602Y004597D01*
X020654Y004613D01*
X020706Y004626D01*
X020759Y004635D01*
X020813Y004641D01*
X020867Y004643D01*
X020867Y004634D01*
X020814Y004632D01*
X020760Y004626D01*
X020708Y004617D01*
X020656Y004604D01*
X020605Y004588D01*
X020555Y004569D01*
X020507Y004546D01*
X020460Y004520D01*
X020416Y004491D01*
X020373Y004459D01*
X020332Y004424D01*
X020294Y004387D01*
X020258Y004347D01*
X020225Y004305D01*
X020195Y004261D01*
X020168Y004215D01*
X020176Y004211D01*
X020203Y004256D01*
X020233Y004300D01*
X020265Y004341D01*
X020300Y004381D01*
X020338Y004418D01*
X020378Y004452D01*
X020421Y004484D01*
X020465Y004512D01*
X020511Y004538D01*
X020559Y004560D01*
X020608Y004580D01*
X020658Y004596D01*
X020710Y004608D01*
X020762Y004617D01*
X020814Y004623D01*
X020867Y004625D01*
X020867Y004616D01*
X020811Y004614D01*
X020756Y004607D01*
X020701Y004597D01*
X020647Y004583D01*
X020595Y004565D01*
X020543Y004544D01*
X020494Y004518D01*
X020446Y004490D01*
X020400Y004458D01*
X020357Y004423D01*
X020317Y004385D01*
X020279Y004344D01*
X020244Y004300D01*
X020213Y004254D01*
X020184Y004206D01*
X020192Y004202D01*
X020220Y004250D01*
X020251Y004295D01*
X020286Y004338D01*
X020323Y004378D01*
X020363Y004416D01*
X020406Y004451D01*
X020451Y004482D01*
X020498Y004511D01*
X020547Y004535D01*
X020598Y004557D01*
X020650Y004574D01*
X020703Y004588D01*
X020757Y004598D01*
X020812Y004605D01*
X020867Y004607D01*
X020867Y004598D01*
X020813Y004596D01*
X020759Y004590D01*
X020705Y004580D01*
X020653Y004566D01*
X020601Y004548D01*
X020551Y004527D01*
X020502Y004503D01*
X020456Y004475D01*
X020411Y004443D01*
X020369Y004409D01*
X020330Y004372D01*
X020293Y004332D01*
X020259Y004290D01*
X020228Y004245D01*
X020200Y004198D01*
X021517Y004378D02*
X021448Y004321D01*
X021449Y004321D02*
X021412Y004361D01*
X021373Y004399D01*
X021331Y004433D01*
X021287Y004465D01*
X021241Y004493D01*
X021192Y004518D01*
X021142Y004539D01*
X021091Y004557D01*
X021038Y004570D01*
X020985Y004580D01*
X020931Y004587D01*
X020877Y004589D01*
X020876Y004678D01*
X020877Y004679D01*
X020933Y004677D01*
X020989Y004671D01*
X021044Y004661D01*
X021099Y004648D01*
X021152Y004631D01*
X021205Y004611D01*
X021256Y004587D01*
X021305Y004560D01*
X021352Y004529D01*
X021397Y004496D01*
X021440Y004460D01*
X021480Y004421D01*
X021518Y004379D01*
X021511Y004373D01*
X021474Y004414D01*
X021434Y004453D01*
X021392Y004489D01*
X021347Y004522D01*
X021300Y004552D01*
X021252Y004579D01*
X021201Y004602D01*
X021149Y004623D01*
X021096Y004639D01*
X021042Y004652D01*
X020988Y004662D01*
X020933Y004668D01*
X020877Y004670D01*
X020877Y004661D01*
X020932Y004659D01*
X020987Y004653D01*
X021041Y004644D01*
X021094Y004631D01*
X021146Y004614D01*
X021198Y004594D01*
X021247Y004571D01*
X021296Y004544D01*
X021342Y004515D01*
X021386Y004482D01*
X021428Y004446D01*
X021467Y004408D01*
X021504Y004367D01*
X021497Y004362D01*
X021461Y004402D01*
X021422Y004440D01*
X021380Y004475D01*
X021337Y004507D01*
X021291Y004537D01*
X021243Y004563D01*
X021194Y004586D01*
X021144Y004606D01*
X021092Y004622D01*
X021039Y004635D01*
X020985Y004644D01*
X020931Y004650D01*
X020877Y004652D01*
X020877Y004643D01*
X020931Y004641D01*
X020984Y004635D01*
X021037Y004626D01*
X021089Y004613D01*
X021141Y004597D01*
X021191Y004578D01*
X021239Y004555D01*
X021286Y004529D01*
X021332Y004500D01*
X021375Y004468D01*
X021416Y004433D01*
X021454Y004396D01*
X021490Y004356D01*
X021483Y004350D01*
X021448Y004389D01*
X021410Y004426D01*
X021369Y004461D01*
X021326Y004492D01*
X021282Y004521D01*
X021235Y004547D01*
X021187Y004569D01*
X021138Y004589D01*
X021087Y004605D01*
X021035Y004617D01*
X020983Y004626D01*
X020930Y004632D01*
X020877Y004634D01*
X020877Y004625D01*
X020929Y004623D01*
X020982Y004617D01*
X021033Y004608D01*
X021084Y004596D01*
X021135Y004580D01*
X021184Y004561D01*
X021231Y004539D01*
X021277Y004513D01*
X021321Y004485D01*
X021363Y004454D01*
X021404Y004420D01*
X021441Y004383D01*
X021476Y004344D01*
X021470Y004338D01*
X021435Y004377D01*
X021397Y004413D01*
X021358Y004447D01*
X021316Y004478D01*
X021272Y004506D01*
X021227Y004531D01*
X021180Y004553D01*
X021132Y004572D01*
X021082Y004587D01*
X021032Y004600D01*
X020981Y004608D01*
X020929Y004614D01*
X020877Y004616D01*
X020877Y004607D01*
X020928Y004605D01*
X020979Y004600D01*
X021030Y004591D01*
X021080Y004579D01*
X021129Y004563D01*
X021176Y004545D01*
X021223Y004523D01*
X021268Y004498D01*
X021311Y004470D01*
X021352Y004440D01*
X021391Y004407D01*
X021428Y004371D01*
X021463Y004333D01*
X021456Y004327D01*
X021419Y004368D01*
X021379Y004406D01*
X021337Y004440D01*
X021292Y004472D01*
X021245Y004501D01*
X021196Y004526D01*
X021145Y004547D01*
X021094Y004565D01*
X021040Y004579D01*
X020986Y004589D01*
X020932Y004596D01*
X020877Y004598D01*
X020382Y003447D02*
X020422Y003478D01*
X020421Y003477D02*
X020452Y003442D01*
X020485Y003409D01*
X020520Y003379D01*
X020559Y003352D01*
X020599Y003328D01*
X020641Y003308D01*
X020684Y003291D01*
X020729Y003277D01*
X020774Y003267D01*
X020820Y003261D01*
X020867Y003259D01*
X020868Y003210D01*
X020867Y003209D01*
X020821Y003211D01*
X020774Y003217D01*
X020729Y003226D01*
X020684Y003238D01*
X020640Y003254D01*
X020597Y003273D01*
X020556Y003295D01*
X020517Y003320D01*
X020480Y003347D01*
X020445Y003378D01*
X020412Y003411D01*
X020382Y003446D01*
X020389Y003452D01*
X020419Y003417D01*
X020451Y003384D01*
X020485Y003354D01*
X020522Y003327D01*
X020561Y003302D01*
X020601Y003281D01*
X020643Y003262D01*
X020686Y003247D01*
X020731Y003234D01*
X020776Y003226D01*
X020821Y003220D01*
X020867Y003218D01*
X020867Y003227D01*
X020822Y003229D01*
X020777Y003234D01*
X020733Y003243D01*
X020689Y003255D01*
X020647Y003270D01*
X020605Y003289D01*
X020565Y003310D01*
X020527Y003334D01*
X020491Y003361D01*
X020457Y003391D01*
X020425Y003423D01*
X020396Y003457D01*
X020403Y003463D01*
X020435Y003426D01*
X020469Y003392D01*
X020506Y003361D01*
X020546Y003333D01*
X020588Y003308D01*
X020631Y003287D01*
X020676Y003269D01*
X020723Y003255D01*
X020770Y003245D01*
X020819Y003238D01*
X020867Y003236D01*
X020867Y003245D01*
X020819Y003247D01*
X020772Y003254D01*
X020725Y003264D01*
X020679Y003277D01*
X020635Y003295D01*
X020592Y003316D01*
X020551Y003340D01*
X020512Y003368D01*
X020475Y003399D01*
X020441Y003432D01*
X020410Y003468D01*
X020417Y003474D01*
X020448Y003438D01*
X020481Y003405D01*
X020517Y003375D01*
X020556Y003348D01*
X020596Y003324D01*
X020639Y003303D01*
X020682Y003286D01*
X020727Y003272D01*
X020773Y003262D01*
X020820Y003256D01*
X020867Y003254D01*
X020876Y003210D02*
X020876Y003260D01*
X020877Y003259D02*
X020924Y003261D01*
X020970Y003267D01*
X021015Y003277D01*
X021060Y003291D01*
X021103Y003308D01*
X021145Y003328D01*
X021185Y003352D01*
X021224Y003379D01*
X021259Y003409D01*
X021292Y003442D01*
X021323Y003477D01*
X021362Y003447D01*
X021362Y003446D01*
X021332Y003411D01*
X021299Y003378D01*
X021264Y003347D01*
X021227Y003320D01*
X021188Y003295D01*
X021147Y003273D01*
X021104Y003254D01*
X021060Y003238D01*
X021015Y003226D01*
X020970Y003217D01*
X020923Y003211D01*
X020877Y003209D01*
X020877Y003218D01*
X020923Y003220D01*
X020968Y003226D01*
X021013Y003234D01*
X021058Y003247D01*
X021101Y003262D01*
X021143Y003281D01*
X021183Y003302D01*
X021222Y003327D01*
X021259Y003354D01*
X021293Y003384D01*
X021325Y003417D01*
X021355Y003452D01*
X021348Y003457D01*
X021319Y003423D01*
X021287Y003391D01*
X021253Y003361D01*
X021217Y003334D01*
X021179Y003310D01*
X021139Y003289D01*
X021097Y003270D01*
X021055Y003255D01*
X021011Y003243D01*
X020967Y003234D01*
X020922Y003229D01*
X020877Y003227D01*
X020877Y003236D01*
X020925Y003238D01*
X020974Y003245D01*
X021021Y003255D01*
X021068Y003269D01*
X021113Y003287D01*
X021156Y003308D01*
X021198Y003333D01*
X021238Y003361D01*
X021275Y003392D01*
X021309Y003426D01*
X021341Y003463D01*
X021334Y003468D01*
X021303Y003432D01*
X021269Y003399D01*
X021232Y003368D01*
X021193Y003340D01*
X021152Y003316D01*
X021109Y003295D01*
X021065Y003277D01*
X021019Y003264D01*
X020972Y003254D01*
X020925Y003247D01*
X020877Y003245D01*
X020877Y003254D01*
X020924Y003256D01*
X020971Y003262D01*
X021017Y003272D01*
X021062Y003286D01*
X021105Y003303D01*
X021148Y003324D01*
X021188Y003348D01*
X021227Y003375D01*
X021263Y003405D01*
X021296Y003438D01*
X021327Y003474D01*
X020868Y004458D02*
X020868Y004408D01*
X020867Y004409D02*
X020823Y004407D01*
X020780Y004402D01*
X020737Y004393D01*
X020695Y004381D01*
X020655Y004366D01*
X020615Y004348D01*
X020577Y004327D01*
X020540Y004304D01*
X020505Y004277D01*
X020473Y004248D01*
X020443Y004217D01*
X020415Y004183D01*
X020376Y004212D01*
X020375Y004213D01*
X020405Y004250D01*
X020438Y004284D01*
X020473Y004315D01*
X020511Y004344D01*
X020551Y004370D01*
X020592Y004393D01*
X020636Y004413D01*
X020680Y004429D01*
X020726Y004442D01*
X020772Y004451D01*
X020820Y004457D01*
X020867Y004459D01*
X020867Y004450D01*
X020820Y004448D01*
X020774Y004442D01*
X020728Y004433D01*
X020683Y004420D01*
X020639Y004404D01*
X020597Y004385D01*
X020556Y004362D01*
X020516Y004337D01*
X020479Y004309D01*
X020444Y004277D01*
X020412Y004244D01*
X020382Y004208D01*
X020389Y004202D01*
X020419Y004238D01*
X020451Y004271D01*
X020485Y004302D01*
X020522Y004330D01*
X020560Y004355D01*
X020601Y004377D01*
X020642Y004396D01*
X020686Y004412D01*
X020730Y004424D01*
X020775Y004433D01*
X020821Y004439D01*
X020867Y004441D01*
X020867Y004432D01*
X020822Y004430D01*
X020777Y004424D01*
X020732Y004415D01*
X020689Y004403D01*
X020646Y004388D01*
X020605Y004369D01*
X020565Y004347D01*
X020527Y004322D01*
X020491Y004295D01*
X020457Y004264D01*
X020425Y004232D01*
X020397Y004197D01*
X020404Y004191D01*
X020432Y004226D01*
X020463Y004258D01*
X020497Y004288D01*
X020532Y004315D01*
X020569Y004339D01*
X020609Y004361D01*
X020649Y004379D01*
X020691Y004395D01*
X020734Y004407D01*
X020778Y004415D01*
X020822Y004421D01*
X020867Y004423D01*
X020867Y004414D01*
X020823Y004412D01*
X020779Y004407D01*
X020736Y004398D01*
X020694Y004386D01*
X020653Y004371D01*
X020613Y004353D01*
X020574Y004332D01*
X020537Y004308D01*
X020502Y004281D01*
X020469Y004252D01*
X020439Y004220D01*
X020411Y004186D01*
X021377Y004201D02*
X021336Y004172D01*
X021337Y004172D02*
X021309Y004207D01*
X021279Y004240D01*
X021246Y004271D01*
X021211Y004298D01*
X021174Y004323D01*
X021135Y004345D01*
X021095Y004364D01*
X021053Y004380D01*
X021010Y004392D01*
X020966Y004401D01*
X020922Y004407D01*
X020877Y004409D01*
X020876Y004458D01*
X020877Y004459D01*
X020926Y004457D01*
X020974Y004451D01*
X021022Y004441D01*
X021068Y004427D01*
X021114Y004410D01*
X021158Y004390D01*
X021200Y004366D01*
X021241Y004339D01*
X021279Y004308D01*
X021315Y004275D01*
X021348Y004240D01*
X021378Y004201D01*
X021370Y004196D01*
X021341Y004234D01*
X021308Y004269D01*
X021273Y004302D01*
X021235Y004331D01*
X021196Y004358D01*
X021154Y004382D01*
X021110Y004402D01*
X021066Y004419D01*
X021019Y004432D01*
X020972Y004442D01*
X020925Y004448D01*
X020877Y004450D01*
X020877Y004441D01*
X020924Y004439D01*
X020971Y004433D01*
X021017Y004423D01*
X021063Y004410D01*
X021107Y004394D01*
X021150Y004374D01*
X021191Y004350D01*
X021230Y004324D01*
X021267Y004295D01*
X021302Y004263D01*
X021334Y004228D01*
X021363Y004191D01*
X021356Y004186D01*
X021327Y004222D01*
X021295Y004256D01*
X021261Y004288D01*
X021225Y004317D01*
X021186Y004343D01*
X021146Y004366D01*
X021103Y004385D01*
X021060Y004402D01*
X021015Y004415D01*
X020970Y004424D01*
X020923Y004430D01*
X020877Y004432D01*
X020877Y004423D01*
X020923Y004421D01*
X020968Y004415D01*
X021013Y004406D01*
X021057Y004393D01*
X021100Y004377D01*
X021142Y004358D01*
X021181Y004335D01*
X021219Y004310D01*
X021255Y004281D01*
X021289Y004250D01*
X021320Y004216D01*
X021348Y004180D01*
X021341Y004175D01*
X021313Y004211D01*
X021283Y004244D01*
X021249Y004274D01*
X021214Y004302D01*
X021177Y004328D01*
X021137Y004350D01*
X021097Y004369D01*
X021054Y004385D01*
X021011Y004397D01*
X020967Y004406D01*
X020922Y004412D01*
X020877Y004414D01*
D18*
X009702Y024625D02*
X009602Y024625D01*
X009602Y025575D01*
X009702Y025575D01*
X007402Y025625D02*
X007402Y024625D01*
X007302Y024625D01*
X007302Y025625D02*
X007402Y025625D01*
D19*
X011420Y026850D03*
X014260Y026850D03*
X015142Y007098D03*
X016428Y005692D03*
X019268Y005692D03*
X012302Y007098D03*
D20*
X023196Y002657D03*
D21*
X024968Y004086D03*
D22*
X023241Y003836D03*
X026691Y003836D03*
D23*
X024966Y003836D03*
M02*
